<?xml version="1.0" standalone="no"?>
<!DOCTYPE svg PUBLIC "-//W3C//DTD SVG 20010904//EN"
 "http://www.w3.org/TR/2001/REC-SVG-20010904/DTD/svg10.dtd">
<svg version="1.0" xmlns="http://www.w3.org/2000/svg"
 width="300.000000pt" height="597.000000pt" viewBox="0 0 300.000000 597.000000"
 preserveAspectRatio="xMidYMid meet">
<metadata>
Created by potrace 1.10, written by Peter Selinger 2001-2011
</metadata>
<g transform="translate(0.000000,597.000000) scale(0.100000,-0.100000)"
fill="#000000" stroke="none">
<path d="M1666 5823 c-5 -42 -3 -58 14 -85 l20 -33 0 28 c0 15 -4 27 -9 27 -6
0 -7 15 -5 33 3 17 1 43 -4 56 -8 22 -10 19 -16 -26z"/>
<path d="M1711 5845 c0 -11 6 -33 14 -49 19 -35 19 -36 -2 -37 -15 0 -15 -2 2
-8 12 -5 23 -4 26 2 8 12 -10 67 -21 67 -5 0 -11 10 -13 23 -4 19 -4 19 -6 2z"/>
<path d="M1686 5645 c-19 -35 -18 -57 1 -33 10 13 26 68 20 68 -1 0 -11 -16
-21 -35z"/>
<path d="M2000 5667 c0 -7 -9 -23 -21 -35 -11 -12 -18 -26 -14 -31 8 -14 -4
-39 -22 -45 -9 -4 -24 1 -34 10 -11 10 -19 12 -19 6 0 -7 4 -12 10 -12 12 0
34 -40 26 -47 -3 -3 -12 0 -21 7 -12 10 -15 10 -15 -2 0 -8 -9 -23 -20 -33
l-21 -19 26 -13 c27 -15 32 -32 13 -51 -19 -19 -39 -14 -70 15 -30 28 -37 21
-13 -11 23 -31 18 -38 -25 -34 -44 4 -50 -1 -21 -19 14 -9 24 -9 43 1 14 7 39
12 56 11 22 -2 29 1 25 9 -4 6 4 4 17 -5 14 -9 38 -19 53 -23 16 -4 50 -27 76
-51 l47 -44 3 41 c1 22 3 44 4 47 1 3 -5 15 -12 26 -11 17 -21 19 -67 17 -50
-4 -54 -2 -64 23 -14 37 -12 91 3 107 22 21 37 55 37 80 0 13 9 31 20 41 22
19 25 33 10 42 -5 3 -10 0 -10 -8z"/>
<path d="M641 5585 c-13 -14 -21 -28 -17 -32 9 -9 43 24 43 42 0 8 -1 15 -1
15 -1 0 -12 -12 -25 -25z"/>
<path d="M1770 5601 c0 -5 7 -14 16 -21 11 -10 14 -24 9 -54 l-6 -41 21 28
c14 17 31 27 48 27 l27 0 -29 19 c-17 11 -33 18 -38 15 -4 -3 -11 1 -14 10 -6
16 -34 30 -34 17z"/>
<path d="M1684 5567 c-16 -17 -37 -45 -48 -61 -14 -22 -20 -26 -27 -15 -15 23
-10 39 11 39 11 0 20 6 20 14 0 8 3 23 6 33 5 17 5 17 -6 0 -6 -9 -15 -15 -21
-12 -5 4 -17 -1 -26 -11 -16 -15 -16 -20 -1 -63 13 -35 15 -67 11 -135 l-6
-89 -20 24 c-10 13 -20 22 -22 19 -1 -3 -15 10 -30 28 -15 18 -30 31 -32 28
-8 -8 51 -85 70 -92 9 -3 17 -10 17 -16 0 -5 6 -8 14 -5 11 4 12 -1 4 -27 -8
-25 -5 -48 11 -104 12 -40 26 -72 32 -72 6 0 6 7 -1 19 -5 11 -10 29 -10 40 0
16 5 19 30 16 22 -3 30 1 30 12 0 11 -4 13 -12 5 -8 -6 -22 -6 -36 -1 -18 7
-22 14 -17 29 4 13 2 20 -6 20 -10 0 -10 3 -1 12 10 10 17 10 33 -1 18 -11 18
-8 -5 22 -22 29 -26 44 -26 103 l1 69 25 -30 25 -30 -7 30 c-3 17 -12 41 -18
56 -9 19 -10 35 -2 62 l11 37 57 -29 c33 -17 54 -23 51 -16 -2 8 -11 16 -19
19 -8 3 -14 19 -14 35 0 16 -5 33 -11 37 -8 5 -8 9 1 14 7 5 8 10 2 13 -5 4
-22 -8 -38 -26z"/>
<path d="M1537 5578 c-5 -14 -72 -33 -158 -43 -98 -12 -161 -30 -241 -70 -25
-13 -48 -22 -50 -20 -5 5 -106 -90 -132 -124 -10 -13 -37 -52 -61 -87 -23 -35
-45 -61 -49 -57 -3 3 -7 -5 -7 -18 -5 -74 -8 -96 -16 -119 -5 -14 -8 -44 -5
-67 2 -28 0 -43 -7 -43 -7 0 -11 -20 -11 -50 0 -27 -2 -50 -5 -50 -17 0 -83
54 -98 80 -21 35 -63 170 -72 235 -9 54 -23 70 -19 20 1 -19 -2 -35 -7 -35 -5
0 -9 -7 -9 -16 0 -10 6 -14 14 -11 10 4 13 1 9 -9 -3 -7 -1 -14 5 -14 5 0 12
-18 15 -41 7 -51 43 -125 79 -161 15 -16 24 -28 19 -28 -5 0 -7 -9 -4 -19 3
-13 -5 -26 -25 -41 -17 -13 -32 -31 -35 -41 -3 -12 6 -7 31 17 19 19 39 34 44
34 5 0 6 9 3 20 -7 23 2 25 29 5 15 -12 18 -23 14 -65 -4 -41 -3 -48 8 -39 8
7 14 31 14 60 0 26 4 50 9 53 4 3 6 16 4 30 -3 13 3 36 14 52 10 16 12 25 6
21 -16 -10 -18 43 -2 93 5 19 12 46 15 59 15 71 145 257 217 309 41 29 110 61
182 84 17 5 75 16 130 24 55 8 117 17 138 20 38 6 47 23 28 52 -7 11 -9 11
-14 0z"/>
<path d="M682 5568 c-7 -7 -12 -18 -12 -25 0 -13 -28 -63 -41 -73 -10 -7 -48
-72 -55 -92 -4 -10 -10 -18 -15 -18 -13 0 -31 -39 -24 -51 7 -10 74 87 75 107
0 7 6 14 14 17 18 7 87 147 72 147 -1 0 -7 -5 -14 -12z"/>
<path d="M1985 5530 c-3 -11 -11 -20 -16 -20 -5 0 -9 -4 -9 -8 0 -5 10 -8 21
-8 33 1 43 -37 18 -68 -21 -27 -10 -36 20 -17 10 7 23 4 40 -8 15 -10 36 -22
49 -25 19 -6 23 -3 28 22 3 17 16 35 28 40 16 8 17 11 4 11 -9 1 -23 -7 -30
-17 -37 -51 -81 -29 -94 46 -1 8 -10 22 -18 31 -9 10 -16 23 -16 29 0 20 -18
14 -25 -8z"/>
<path d="M572 5528 c-7 -7 -12 -15 -12 -20 0 -19 -48 -75 -62 -72 -10 1 -21
-10 -29 -27 l-12 -30 -24 23 -24 23 10 -28 c6 -15 7 -26 3 -24 -12 4 -12 -16
-1 -51 14 -42 8 -48 -28 -27 l-28 17 29 -25 30 -26 -35 -16 c-19 -9 -50 -38
-69 -65 -20 -27 -49 -53 -67 -61 -18 -7 -31 -15 -29 -17 7 -6 76 18 76 27 0 4
20 17 45 29 31 15 45 18 44 10 -9 -69 22 -13 40 72 17 79 89 200 163 273 23
22 25 27 10 27 -10 0 -23 -5 -30 -12z"/>
<path d="M1677 5473 c-21 -24 -22 -37 -3 -30 8 3 17 -1 20 -9 6 -16 36 -19 36
-3 0 5 -4 8 -10 4 -5 -3 -13 8 -17 25 -8 31 -9 31 -26 13z"/>
<path d="M180 5434 c0 -16 49 -58 57 -49 5 4 2 10 -5 12 -7 3 -22 14 -33 26
-10 11 -19 16 -19 11z"/>
<path d="M264 5404 c2 -10 23 -34 47 -53 l44 -36 -44 50 c-25 28 -46 52 -47
53 -1 2 -1 -4 0 -14z"/>
<path d="M2160 5372 c-14 -9 -26 -24 -28 -32 -2 -8 -7 -17 -11 -20 -5 -3 -11
-16 -15 -30 l-7 -25 20 23 c22 25 43 28 61 8 19 -24 8 -59 -20 -67 l-25 -6 28
-12 c37 -15 40 -14 33 7 -4 10 2 7 14 -8 21 -27 26 -45 10 -35 -5 3 -10 1 -10
-4 0 -15 -33 -14 -49 2 -11 10 -13 9 -8 -5 13 -38 -22 -16 -53 32 -12 19 -19
26 -15 15 4 -11 14 -50 23 -87 16 -65 31 -88 33 -50 0 9 3 12 5 5 3 -6 -2 -26
-11 -43 -9 -18 -14 -34 -11 -38 3 -3 6 1 6 8 0 9 3 10 9 5 20 -22 55 -245 62
-395 1 -19 12 -73 24 -120 13 -47 26 -98 29 -113 4 -16 11 -25 17 -21 10 6 38
-24 50 -55 3 -9 9 3 13 28 3 23 14 54 24 69 l17 27 -27 -20 c-15 -11 -28 -23
-28 -27 0 -5 -6 -8 -14 -8 -14 0 -38 59 -51 130 -4 19 -11 40 -16 45 -4 6 -8
20 -8 30 0 11 -2 36 -4 55 -3 19 -7 64 -11 100 -12 127 -16 165 -21 190 -3 14
-8 40 -11 58 -4 17 -11 32 -16 32 -5 0 -8 16 -7 35 2 19 -2 40 -9 47 -6 6 -12
18 -12 25 0 11 5 11 21 2 19 -9 26 -7 51 19 29 28 29 30 14 59 -8 17 -13 39
-10 50 4 14 -5 32 -26 57 -32 35 -32 37 -15 56 22 25 18 25 -15 2z"/>
<path d="M502 5317 c-7 -15 -18 -30 -26 -33 -8 -3 -15 -18 -15 -32 1 -15 -2
-40 -5 -57 -3 -16 -3 -23 1 -15 3 8 12 21 20 28 7 7 13 23 13 35 0 13 7 33 16
45 8 12 14 30 11 40 -3 13 -6 11 -15 -11z"/>
<path d="M1034 5288 c-54 -43 -74 -62 -91 -87 -9 -14 15 3 53 39 38 35 71 65
73 67 2 2 2 3 -1 3 -3 0 -18 -10 -34 -22z"/>
<path d="M210 5271 c-24 -10 -46 -23 -48 -30 -4 -13 30 -3 40 13 5 8 10 8 18
0 8 -8 28 -8 68 -1 67 11 92 27 41 27 -18 0 -43 2 -54 5 -11 2 -40 -4 -65 -14z"/>
<path d="M1720 5265 c-9 -11 -17 -12 -34 -4 -17 10 -19 9 -8 -2 6 -7 12 -22
13 -33 0 -20 1 -20 9 2 5 12 17 25 26 29 21 8 35 -16 23 -38 -7 -14 -4 -18 14
-21 16 -2 21 -9 20 -26 -4 -35 12 -26 32 20 10 24 20 37 23 30 5 -15 62 -16
62 -1 0 5 -4 8 -9 5 -13 -9 -42 4 -35 16 3 5 16 13 28 18 20 8 20 9 1 9 -12 1
-36 -12 -55 -29 -42 -35 -60 -38 -60 -7 0 22 -16 47 -31 47 -4 0 -12 -7 -19
-15z"/>
<path d="M1930 5267 c14 -7 29 -22 35 -35 10 -23 25 -30 25 -12 0 26 -34 60
-59 60 l-26 0 25 -13z"/>
<path d="M1457 5193 c-82 -77 -153 -153 -143 -153 4 0 24 17 44 38 21 20 73
70 116 110 43 39 73 72 66 72 -6 0 -43 -30 -83 -67z"/>
<path d="M1677 5186 c-4 -10 -1 -13 8 -10 7 3 15 -2 18 -13 4 -16 5 -16 6 0 0
9 7 17 14 17 8 0 7 4 -3 10 -21 14 -37 12 -43 -4z"/>
<path d="M1049 5127 c-114 -66 -151 -93 -162 -117 -4 -8 -14 -26 -23 -40 -9
-14 8 1 37 32 46 48 171 138 193 138 4 0 24 11 44 25 67 46 19 25 -89 -38z"/>
<path d="M1732 5151 c15 -25 4 -53 -18 -44 -12 4 -15 3 -10 -5 4 -7 16 -12 28
-12 11 0 51 -20 88 -45 37 -24 75 -47 86 -50 19 -6 13 -1 -88 78 -27 21 -53
49 -58 61 -5 13 -15 26 -24 29 -13 5 -14 3 -4 -12z"/>
<path d="M437 5139 c-10 -37 -8 -46 8 -46 16 0 18 20 6 51 -7 18 -8 18 -14 -5z"/>
<path d="M2023 5056 c3 -8 1 -16 -5 -18 -6 -2 -10 -16 -10 -31 0 -15 -5 -24
-10 -21 -5 3 3 -17 17 -46 23 -45 26 -60 20 -104 -4 -28 -4 -48 0 -44 4 4 12
38 16 75 4 38 11 82 14 99 5 21 1 40 -15 67 -22 37 -37 50 -27 23z m32 -66 c3
-11 3 -25 -1 -31 -10 -16 -35 18 -27 37 7 20 21 17 28 -6z"/>
<path d="M1578 5002 c-50 -75 -128 -262 -110 -262 5 0 16 26 26 57 10 32 40
99 67 150 26 51 46 93 45 93 -2 0 -15 -17 -28 -38z"/>
<path d="M1688 4992 c-14 -21 -40 -67 -58 -103 -18 -35 -38 -71 -45 -79 -16
-19 -26 -98 -14 -106 5 -3 9 11 9 30 0 41 30 112 41 95 4 -6 16 15 28 47 13
33 34 78 48 102 31 55 24 65 -9 14z"/>
<path d="M1929 4938 c-23 -71 -25 -79 -28 -106 -3 -32 -99 -116 -175 -153 -76
-37 -104 -43 -78 -17 7 7 12 25 12 42 0 19 10 41 28 60 22 25 23 27 3 11 l-24
-20 7 29 c17 68 15 88 -3 36 -22 -63 -47 -188 -39 -195 3 -3 14 -2 26 2 33 13
191 0 201 -16 12 -19 35 56 61 199 11 63 27 127 35 142 17 29 20 58 6 58 -5 0
-19 -33 -32 -72z m-39 -226 c-7 -32 -15 -63 -19 -68 -3 -5 -45 -8 -94 -6 l-87
3 59 30 c33 16 79 47 103 68 23 22 44 38 46 36 2 -2 -2 -30 -8 -63z"/>
<path d="M1198 4916 c-37 -35 -93 -77 -124 -92 -32 -15 -52 -30 -46 -32 6 -2
26 4 44 14 l33 17 -24 -27 c-14 -14 -32 -26 -40 -26 -38 -1 18 -19 94 -30 123
-18 171 -44 128 -69 -14 -7 -15 -12 -5 -24 15 -17 10 -79 -7 -85 -7 -2 -34 16
-60 40 -80 72 -129 108 -145 108 -23 0 -20 -16 8 -38 l25 -19 -35 -49 c-48
-67 -110 -173 -118 -204 -4 -14 11 8 34 49 46 84 120 192 129 190 3 -1 27 -24
53 -53 l47 -52 -25 -69 c-25 -71 -58 -215 -50 -222 2 -3 7 5 11 16 7 22 27 30
21 9 -1 -7 -1 -10 1 -5 8 13 22 7 28 -13 4 -13 -3 -37 -20 -66 -25 -42 -28
-44 -41 -27 -7 10 -14 16 -14 13 -9 -39 -8 -50 2 -50 9 0 9 -3 0 -12 -7 -7
-12 -16 -12 -22 0 -5 3 -6 7 -3 3 4 12 2 20 -4 11 -10 11 -15 1 -28 -12 -14
-11 -14 4 -3 15 12 27 10 85 -14 37 -15 87 -29 110 -32 l43 -5 -17 34 c-9 19
-24 46 -35 61 -10 14 -18 37 -18 50 0 18 2 20 10 8 20 -31 9 0 -15 41 -14 24
-25 51 -25 59 0 8 -11 27 -25 42 -14 15 -30 38 -35 50 -8 22 -9 22 -9 2 -1
-12 12 -38 28 -58 27 -33 33 -76 11 -76 -8 0 -40 62 -40 78 0 6 -9 8 -20 5
-11 -3 -20 0 -20 6 0 22 30 83 55 113 28 33 34 58 10 38 -9 -7 -18 -10 -22 -6
-3 3 -1 6 6 6 7 0 9 5 6 10 -5 8 -11 8 -20 0 -10 -8 -8 3 5 37 18 49 48 76 35
32 -4 -13 -11 -28 -16 -33 -5 -6 -9 -15 -9 -20 0 -6 5 -4 10 4 7 11 10 11 10
2 0 -7 10 -16 22 -21 14 -5 29 -28 44 -67 l22 -59 0 51 c0 28 -4 57 -9 65 -7
9 -8 4 -4 -16 l6 -30 -15 25 c-8 14 -15 37 -16 52 0 20 -4 26 -15 22 -10 -4
-15 0 -15 15 0 22 20 30 20 9 1 -9 4 -8 10 2 4 9 13 74 19 145 6 72 17 157 26
189 9 32 14 61 12 63 -6 5 -34 -64 -53 -132 -10 -33 -19 -61 -20 -63 -1 -2
-23 2 -48 9 l-47 12 25 26 c14 15 26 31 26 37 -1 5 -16 -8 -34 -30 -31 -36
-36 -38 -71 -32 l-38 7 79 82 c141 145 169 184 52 73z m58 -764 c7 22 7 22 15
3 13 -33 10 -82 -6 -95 -12 -10 -26 -8 -75 10 -40 15 -58 26 -52 34 4 6 19 28
32 49 l25 38 27 -32 26 -31 8 24z m64 -128 c0 -16 -9 -18 -28 -5 -10 6 -11 19
-6 46 l7 38 13 -33 c8 -18 14 -39 14 -46z"/>
<path d="M2090 4966 c0 -8 6 -16 13 -18 16 -6 23 -203 9 -276 -9 -51 0 -74 12
-29 10 39 6 258 -6 298 -11 38 -28 53 -28 25z"/>
<path d="M1790 4865 c-24 -25 -40 -45 -34 -45 10 0 44 34 73 73 23 30 6 18
-39 -28z"/>
<path d="M821 4809 c-1 -23 23 -67 45 -84 25 -19 68 -19 110 1 19 9 33 18 31
20 -2 3 -17 -2 -33 -11 -36 -19 -65 -19 -89 -1 -17 12 -12 13 36 10 l54 -3
-46 8 c-60 11 -88 27 -99 54 -6 16 -9 17 -9 6z"/>
<path d="M2006 4726 c-19 -65 -20 -82 -2 -41 14 32 28 95 21 95 -2 0 -11 -24
-19 -54z"/>
<path d="M981 4699 c-24 -27 -50 -49 -58 -49 -8 0 -11 -4 -8 -10 14 -23 -16
-8 -31 15 -23 35 -29 24 -9 -15 l17 -32 -49 -49 -48 -49 -6 28 c-6 25 -7 24
-8 -9 -1 -37 -24 -70 -34 -49 -3 6 -4 5 -3 -2 2 -7 -6 -23 -17 -35 -11 -13
-17 -23 -14 -23 4 0 77 70 161 156 86 86 159 153 165 150 7 -4 8 -1 5 8 -9 23
-14 20 -63 -35z"/>
<path d="M830 4670 c0 -36 3 -50 9 -41 7 11 10 10 14 -5 3 -10 3 1 0 26 -9 71
-22 83 -23 20z"/>
<path d="M1109 4706 c8 -9 28 -26 45 -37 l31 -21 -28 26 -28 26 24 0 c16 0 28
-9 38 -27 15 -32 49 -69 49 -55 0 5 -7 15 -15 22 -8 7 -15 19 -15 27 0 9 6 13
15 9 8 -3 15 -1 15 4 0 9 -42 23 -111 37 -31 6 -33 5 -20 -11z"/>
<path d="M754 4667 c-17 -18 -35 -45 -38 -61 -6 -23 -10 -26 -16 -16 -13 20
-16 12 -23 -50 -6 -50 -5 -53 8 -36 8 11 15 28 15 37 0 10 23 42 50 72 28 30
50 60 50 65 0 23 -16 19 -46 -11z"/>
<path d="M2010 4641 c-13 -34 -29 -68 -36 -75 -7 -7 -9 -18 -4 -26 9 -15 30
21 55 95 25 71 12 77 -15 6z"/>
<path d="M964 4585 c-42 -85 -59 -106 -135 -176 -121 -111 -202 -231 -245
-364 -23 -68 -34 -56 -14 15 11 37 -2 93 -28 120 -8 8 -12 10 -9 4 7 -13 19
-65 18 -79 -1 -5 -3 -53 -5 -105 -3 -52 -7 -115 -10 -140 -4 -25 -8 -58 -10
-75 -2 -16 -9 -53 -15 -82 -20 -98 -41 -380 -41 -552 0 -69 -5 -144 -11 -166
-6 -22 -13 -52 -16 -67 -3 -16 -9 -28 -12 -28 -4 0 -8 -6 -8 -12 0 -14 -67
-191 -83 -220 -11 -19 -14 -65 -4 -55 11 10 74 157 116 272 l42 110 1 250 c1
192 6 277 20 365 15 91 20 109 26 85 5 -24 7 -20 6 20 0 115 42 340 80 428 24
53 52 81 38 37 -5 -15 -3 -18 9 -14 9 3 19 18 22 33 5 26 49 118 65 136 6 5
24 -6 47 -29 30 -32 33 -38 15 -32 -20 6 -23 4 -23 -17 0 -37 -21 -90 -44
-111 -12 -11 -16 -20 -10 -23 6 -2 20 -10 30 -17 18 -14 18 -15 1 -34 -19 -21
-31 -92 -16 -92 5 0 9 -7 9 -16 0 -10 -6 -14 -15 -10 -12 4 -13 2 -2 -16 7
-13 8 -22 2 -24 -6 -3 -9 -76 -7 -202 2 -109 -1 -238 -6 -286 -9 -79 -7 -110
19 -275 31 -197 47 -374 43 -456 l-3 -50 9 55 c5 30 7 84 5 119 -4 53 -2 66
13 77 16 13 16 14 0 8 -15 -5 -18 0 -17 32 0 45 16 129 18 97 0 -12 6 -25 12
-29 6 -4 9 -19 5 -36 -4 -20 -2 -27 6 -22 8 5 9 2 5 -9 -4 -10 -2 -17 4 -17 6
0 9 -6 6 -14 -3 -8 -1 -16 5 -18 5 -2 10 -20 10 -41 0 -20 4 -37 8 -37 5 0 9
-8 8 -17 0 -10 10 -49 22 -88 12 -38 22 -78 23 -87 1 -10 4 -18 8 -18 3 0 14
-20 23 -44 9 -25 24 -50 33 -58 10 -8 7 5 -10 38 -22 44 -55 140 -63 184 -8
44 -26 115 -49 200 -66 238 -101 438 -106 610 -9 307 -4 450 20 560 38 171
107 363 187 522 19 38 33 72 30 75 -2 2 -26 -39 -52 -92z m-88 -199 c-3 -6
-11 -30 -18 -53 -7 -24 -16 -43 -21 -43 -4 0 -20 12 -34 26 l-27 27 37 33 c23
21 42 31 52 28 9 -4 14 -12 11 -18z"/>
<path d="M1593 4637 c-17 -63 -16 -76 3 -49 9 13 14 37 12 59 l-3 38 -12 -48z"/>
<path d="M1952 4626 c-7 -20 -10 -41 -6 -47 4 -7 3 -9 -3 -6 -5 4 -16 -5 -24
-19 -7 -14 -27 -37 -43 -51 -22 -18 -25 -24 -11 -21 11 1 32 17 48 33 26 28
27 28 16 5 -11 -22 -11 -24 3 -12 14 11 29 61 27 86 0 5 3 12 8 15 5 3 7 17 4
30 -6 21 -7 21 -19 -13z"/>
<path d="M2053 4580 c-25 -54 -37 -70 -53 -70 -13 0 -18 -4 -14 -11 9 -16 -6
-160 -17 -153 -11 6 -11 -3 0 -31 13 -32 35 49 33 121 -1 57 0 62 18 57 15 -4
19 -2 14 10 -3 10 2 20 15 27 12 6 21 7 21 1 0 -5 -7 -12 -16 -15 -9 -4 -14
-9 -11 -12 2 -3 -1 -30 -8 -60 -7 -30 -9 -54 -5 -54 7 0 32 72 34 100 1 9 5
21 10 28 9 15 -2 35 -15 27 -15 -10 -10 5 10 31 10 13 20 21 23 19 2 -3 3 9 0
25 -2 17 -5 30 -6 30 0 -1 -15 -32 -33 -70z"/>
<path d="M750 4588 c-37 -46 -49 -70 -50 -98 0 -23 2 -22 25 12 14 20 25 41
25 45 0 4 9 19 20 33 11 14 20 28 20 33 0 15 -16 5 -40 -25z"/>
<path d="M2115 4423 c0 -156 2 -183 15 -183 12 0 12 2 2 8 -8 5 -10 16 -6 27
7 18 8 18 15 -1 13 -33 10 -57 -6 -50 -18 7 -18 9 -3 -73 9 -52 13 -61 18 -41
4 14 2 31 -3 38 -5 7 -7 15 -3 19 3 3 6 0 6 -7 0 -7 3 -10 6 -7 4 4 1 14 -6
23 -9 10 -10 18 -4 22 14 10 16 78 4 142 -14 74 -19 190 -8 218 6 17 5 21 -4
16 -7 -5 -9 -1 -6 13 3 11 0 20 -6 20 -8 0 -11 -56 -11 -184z"/>
<path d="M1841 4529 c-14 -30 -26 -46 -31 -40 -4 7 -11 1 -19 -16 -10 -23 -10
-26 0 -15 7 6 20 12 29 12 13 0 13 -2 0 -10 -21 -13 -9 -19 19 -9 19 8 21 12
11 24 -11 14 -3 45 27 98 2 4 0 7 -5 7 -4 0 -19 -23 -31 -51z"/>
<path d="M1510 4564 c0 -4 11 -20 26 -35 23 -24 25 -34 26 -120 0 -52 7 -111
14 -131 7 -20 9 -38 5 -40 -4 -2 -2 -23 5 -48 l12 -45 -2 65 c0 36 -4 67 -8
70 -4 3 -9 56 -11 118 -2 61 -6 114 -10 118 -14 15 -6 20 22 16 19 -3 28 -9
25 -17 -9 -22 16 -28 31 -9 9 12 14 14 15 6 0 -7 5 -10 11 -6 8 5 10 -1 7 -20
-3 -14 -1 -26 3 -26 5 0 9 3 9 8 1 4 10 18 21 31 l20 24 24 -23 c28 -26 31
-23 13 14 -12 27 -19 31 -84 41 -25 4 -45 2 -48 -4 -4 -7 -15 -7 -31 -1 -13 5
-34 7 -46 5 -12 -3 -28 0 -36 6 -7 7 -13 8 -13 3z"/>
<path d="M1101 4498 c-1 -9 -7 -23 -15 -31 -18 -18 -89 -158 -83 -164 3 -2 8
5 12 16 4 12 11 18 17 15 7 -5 9 -1 5 9 -3 10 -2 17 3 17 5 0 11 8 14 18 3 9
3 -3 0 -27 -2 -24 -20 -73 -39 -110 -100 -196 -247 -562 -232 -578 4 -3 9 7
13 21 5 20 10 24 19 16 22 -18 42 20 47 87 3 43 10 69 24 84 14 16 15 23 7 26
-16 6 -17 29 -3 38 6 4 17 1 26 -5 11 -10 12 -16 3 -26 -9 -11 -8 -14 4 -14
22 0 31 18 18 34 -6 7 -7 17 -3 21 4 5 0 6 -9 3 -12 -5 -16 1 -16 23 0 15 4
26 9 23 4 -3 8 4 8 15 0 25 4 26 35 5 27 -18 35 -5 10 16 -16 13 -20 55 -7 64
5 3 24 -10 42 -29 53 -54 64 -40 57 73 -3 57 -10 98 -18 102 -6 4 -8 13 -4 20
6 9 9 9 15 0 4 -6 10 29 14 78 4 50 14 104 22 121 9 17 13 37 11 44 -3 7 -6 5
-6 -5z m-66 -359 c-4 -11 -3 -19 2 -19 4 0 9 -16 10 -34 2 -45 -16 -39 -46 15
-22 38 -22 41 -5 60 13 14 20 16 31 8 7 -7 11 -20 8 -30z"/>
<path d="M1880 4457 c0 -25 23 -68 50 -92 l23 -20 -13 25 c-7 14 -17 27 -21
30 -5 3 -15 21 -23 40 -9 20 -15 27 -16 17z"/>
<path d="M610 4452 c0 -5 3 -12 7 -16 11 -11 13 -39 2 -52 -14 -17 -50 -126
-39 -119 6 4 10 13 10 21 0 8 5 14 10 14 6 0 10 12 10 27 0 15 12 44 27 65 25
37 26 39 7 53 -22 16 -34 19 -34 7z"/>
<path d="M1418 4377 c5 -108 9 -122 10 -32 1 44 -2 85 -6 92 -4 7 -6 -20 -4
-60z"/>
<path d="M650 4376 c-13 -15 -20 -32 -17 -40 7 -19 23 -21 33 -4 5 8 2 9 -11
4 -15 -5 -16 -4 -5 9 7 8 16 12 21 9 5 -3 6 2 3 10 -3 9 -1 16 5 16 6 0 11 5
11 10 0 17 -15 11 -40 -14z"/>
<path d="M1457 4340 c-10 -80 -3 -205 12 -244 6 -16 14 -27 17 -24 2 3 0 17
-6 32 -5 15 -9 37 -8 49 1 12 -2 48 -6 80 -5 37 -4 57 3 57 5 0 13 -27 17 -61
4 -39 10 -56 15 -47 12 17 25 -2 39 -57 6 -22 20 -62 31 -90 12 -27 23 -61 26
-75 5 -25 5 -25 -21 5 -14 17 -25 25 -26 19 0 -6 9 -19 19 -28 16 -14 33 -74
36 -121 0 -16 37 -27 46 -14 9 15 32 1 26 -16 -5 -12 57 -45 208 -107 59 -24
85 -42 101 -66 30 -43 51 -143 65 -294 l11 -123 -32 -68 c-31 -65 -33 -67 -51
-51 -17 15 -17 19 -5 33 32 37 46 82 46 146 l0 66 -44 -64 c-24 -35 -47 -73
-50 -85 -7 -21 -8 -21 -49 7 -23 16 -54 36 -69 44 -15 9 -48 48 -75 87 -26 38
-49 66 -51 62 -1 -5 16 -46 39 -91 27 -54 44 -104 49 -144 9 -69 16 -90 40
-127 9 -14 21 -43 28 -64 l11 -39 -43 42 c-40 39 -45 49 -51 105 -8 79 -20
101 -34 63 -6 -16 -11 -34 -11 -42 0 -32 -22 -23 -40 17 -14 31 -20 37 -20 21
0 -35 -8 -33 -160 55 -29 17 -40 20 -32 10 7 -9 67 -47 132 -84 88 -49 139
-86 190 -137 53 -53 68 -73 58 -79 -9 -7 -6 -8 9 -5 12 3 27 -1 34 -9 6 -8 20
-14 30 -14 17 0 16 -3 -6 -36 -14 -20 -25 -40 -25 -44 0 -11 -83 -32 -111 -28
-18 2 -27 13 -37 43 -7 22 -19 46 -27 55 -12 13 -7 15 41 16 32 0 59 6 67 14
10 10 9 12 -6 6 -39 -13 -95 -18 -101 -8 -4 6 -20 2 -44 -11 l-39 -21 -48 25
c-36 18 -54 36 -74 72 l-26 49 23 15 c27 19 30 53 3 53 -10 0 -30 11 -44 24
-28 26 -87 135 -88 163 0 12 -2 13 -6 5 -5 -14 18 -88 42 -133 8 -14 12 -29
10 -33 -3 -3 -2 -4 1 -2 9 7 33 -17 27 -26 -2 -4 4 -5 13 -1 12 4 15 3 10 -5
-4 -7 -3 -12 3 -12 5 0 8 -14 6 -31 -3 -18 4 -48 15 -72 25 -51 25 -51 -6 -30
-26 17 -27 17 -50 -12 -13 -17 -24 -34 -24 -40 0 -5 5 -3 10 7 17 29 61 8 94
-45 26 -42 29 -56 30 -137 1 -49 5 -90 10 -90 12 0 -1 185 -15 213 -19 37 -71
86 -85 80 -10 -4 -12 0 -8 11 3 9 10 16 15 16 10 0 80 -74 96 -103 7 -12 12
-17 13 -10 0 7 -14 28 -31 48 -47 53 -28 53 26 0 l47 -47 19 21 c11 12 21 21
23 21 2 0 18 -14 36 -30 l33 -31 -42 -35 c-40 -35 -78 -91 -68 -101 3 -2 8 5
12 17 6 20 8 20 63 -11 31 -18 62 -38 68 -45 6 -8 14 -14 18 -14 9 0 7 43 -4
60 -7 11 2 27 37 63 26 26 51 47 56 47 5 0 7 -16 5 -35 -2 -19 -1 -35 2 -35 3
0 16 -34 29 -75 12 -41 32 -86 43 -101 12 -14 22 -44 23 -65 1 -22 5 -43 9
-47 14 -13 26 24 20 59 -3 20 0 56 6 80 7 24 12 87 11 139 l-1 95 29 -45 c15
-25 48 -63 71 -84 41 -37 45 -46 61 -125 12 -61 17 -75 18 -49 0 20 -4 49 -9
64 -16 42 0 53 56 39 31 -8 49 -19 57 -36 16 -31 57 -39 57 -10 0 11 -11 28
-25 39 -15 12 -27 34 -31 60 -6 37 -2 47 43 116 47 70 51 74 69 61 25 -19 126
-19 179 0 22 8 43 11 48 6 7 -7 -23 -100 -72 -225 l-11 -29 -45 49 c-58 65
-65 53 -10 -17 l44 -56 -67 -112 c-98 -162 -195 -291 -297 -395 -72 -72 -99
-93 -134 -102 -38 -11 -45 -10 -67 10 -28 24 -88 166 -109 258 -28 121 -61
367 -53 383 13 21 0 39 -17 25 -9 -7 -12 -24 -9 -46 4 -32 2 -35 -18 -30 -16
4 -14 2 5 -6 27 -12 28 -15 31 -95 0 -24 4 -43 9 -43 4 0 7 -5 7 -11 0 -5 -4
-8 -9 -4 -5 3 -12 1 -15 -4 -6 -9 72 -331 93 -381 8 -22 10 -22 11 -5 1 17 3
17 11 -5 15 -40 73 -72 116 -64 33 6 36 5 29 -12 -17 -46 -75 -132 -122 -181
l-51 -54 -12 -138 c-11 -133 -51 -361 -89 -507 l-19 -71 22 5 c28 5 57 -33 79
-103 76 -241 108 -371 121 -480 12 -114 13 -116 14 -48 1 47 5 73 13 76 10 4
10 6 1 6 -7 1 -10 8 -7 16 3 8 -19 92 -50 187 -68 211 -96 319 -96 369 0 21
-4 40 -9 44 -5 3 -9 -9 -9 -27 1 -59 0 -60 -26 -41 -26 20 -27 37 -3 133 l14
55 11 -55 11 -55 -5 75 c-4 71 -1 97 25 230 6 30 13 80 15 110 19 212 16 199
58 249 21 25 47 56 58 69 11 12 19 24 18 25 -2 8 33 77 40 77 10 0 41 -61 72
-140 18 -48 21 -75 20 -206 0 -82 -9 -238 -20 -345 -53 -514 -67 -693 -52
-670 6 8 11 37 12 65 4 102 7 132 18 159 7 16 12 72 12 125 0 53 7 149 16 212
9 63 17 131 19 150 12 131 18 218 18 239 -1 32 13 13 21 -29 4 -25 3 -31 -4
-20 -15 23 -12 7 5 -27 27 -53 29 -192 6 -401 -12 -107 -21 -201 -20 -210 2
-29 36 191 44 277 4 45 11 83 15 86 5 3 11 -19 15 -47 4 -29 13 -66 21 -82 16
-33 18 -60 5 -52 -5 4 -7 -2 -5 -11 2 -10 13 -75 24 -144 11 -70 30 -157 40
-195 11 -38 20 -84 20 -101 0 -18 5 -33 11 -33 7 0 8 14 4 43 -4 23 -9 60 -10
82 -1 22 -7 58 -13 80 -28 99 -42 170 -34 173 5 1 7 33 5 70 -3 37 0 94 7 127
7 33 15 134 19 225 l6 165 51 -85 c68 -112 92 -162 120 -240 12 -36 23 -57 23
-47 1 27 -51 153 -99 238 -57 102 -96 187 -105 229 -15 71 -24 63 -17 -15 11
-131 8 -344 -7 -438 -8 -48 -17 -84 -21 -80 -22 25 -79 356 -134 772 -9 63
-14 116 -12 118 1 2 13 -17 25 -41 13 -24 43 -63 67 -87 36 -35 46 -53 55
-101 6 -32 16 -58 21 -58 6 0 8 7 4 15 -3 8 -8 37 -12 64 -7 54 -11 61 -39 77
-31 17 -113 130 -126 175 l-13 41 47 39 c25 22 49 48 52 59 7 23 25 27 25 5 0
-8 5 -15 11 -15 6 0 9 6 6 14 -5 13 13 44 48 82 5 6 17 22 25 34 18 27 77 110
119 166 17 23 31 46 31 52 0 7 5 12 10 12 6 0 10 7 10 16 0 8 5 12 10 9 6 -4
7 -11 4 -17 -4 -6 -9 -21 -10 -32 -8 -49 -17 -82 -26 -93 -32 -40 -47 -90 -46
-147 1 -66 16 -52 17 16 1 20 10 52 20 70 29 49 73 223 64 256 -5 23 -4 25 9
14 12 -10 17 -10 26 1 9 11 7 13 -10 13 -11 -1 -23 5 -25 12 -3 6 2 12 9 12
16 0 41 61 33 82 -3 8 3 34 14 59 15 32 19 36 14 14 -4 -16 -6 -41 -4 -55 9
-63 3 -203 -12 -280 -19 -95 -21 -124 -9 -116 4 2 9 24 10 48 2 24 10 72 19
108 9 36 15 85 14 109 -3 56 8 103 20 95 6 -3 13 3 16 15 3 12 9 21 13 21 11
0 30 74 37 145 4 42 10 65 18 65 10 0 10 11 3 46 -8 36 -6 59 7 108 10 33 18
66 19 71 3 17 27 88 40 120 19 45 47 102 41 82 -3 -11 -1 -16 6 -11 7 4 10 -3
8 -17 -3 -27 21 -99 33 -99 14 0 9 45 -11 86 -27 57 -34 115 -16 128 13 10 12
15 -4 43 -19 30 -33 34 -76 23 -5 -2 -25 1 -43 5 -26 6 -36 17 -54 56 -12 26
-25 46 -29 43 -4 -2 -5 5 -2 16 8 30 -10 24 -29 -11 -18 -30 -18 -30 3 -24 24
8 39 -8 39 -42 0 -14 6 -23 15 -23 8 0 15 -7 15 -15 0 -17 -25 -20 -35 -5 -3
6 -18 10 -32 10 -25 0 -26 -1 -8 -20 10 -11 22 -17 26 -14 5 3 9 0 9 -5 0 -40
-107 44 -140 109 -20 41 -53 150 -47 157 5 4 38 -50 51 -82 7 -17 10 -14 22
20 18 52 18 55 -6 55 -11 0 -20 4 -20 8 0 5 -18 21 -39 38 -47 35 -77 83 -96
159 -18 66 -18 68 -5 60 13 -8 13 -3 -2 32 -6 15 -10 35 -9 43 2 13 1 13 -8 0
-6 -8 -11 -30 -11 -47 0 -18 -5 -33 -11 -33 -6 0 -3 -7 5 -16 15 -14 21 -36
17 -58 -1 -4 5 -19 14 -32 8 -13 13 -24 10 -24 -11 0 27 -63 51 -85 18 -17 25
-35 28 -79 3 -31 8 -66 11 -76 4 -12 2 -20 -4 -20 -6 0 -10 5 -8 12 2 15 -116
42 -121 28 -2 -5 -4 -13 -5 -17 -1 -4 21 -6 49 -4 45 2 54 -1 68 -21 9 -13 22
-23 29 -23 6 0 12 -7 12 -15 0 -8 18 -40 40 -70 22 -30 52 -72 65 -92 14 -21
28 -38 32 -38 4 0 15 -15 24 -32 14 -27 14 -31 2 -21 -13 11 -15 7 -15 -31 0
-82 -36 -136 -117 -176 -44 -22 -56 -19 -56 16 0 17 4 23 12 18 8 -5 9 -2 5 9
-4 10 -10 24 -13 32 -8 19 5 19 30 0 38 -29 40 -15 4 18 -21 19 -38 42 -38 51
0 9 -4 14 -10 11 -5 -3 -10 -1 -10 5 0 6 -10 8 -25 4 -30 -7 -31 -4 -5 45 11
22 22 59 26 83 4 23 13 55 20 70 22 42 15 57 -6 16 -11 -20 -29 -39 -40 -43
-11 -3 -20 -10 -20 -15 0 -13 -41 -50 -65 -60 -11 -4 -42 -10 -69 -14 -36 -6
-46 -5 -41 4 6 9 2 9 -15 0 -13 -7 -18 -15 -12 -19 6 -3 0 -20 -15 -41 l-25
-35 4 33 c3 17 1 32 -4 32 -16 0 -8 27 15 48 12 11 34 25 49 31 24 9 26 8 21
-7 -6 -16 -5 -16 14 1 11 9 25 17 31 17 6 0 17 6 24 13 7 7 29 22 48 34 19 12
51 39 70 59 l35 38 -38 -28 c-20 -15 -47 -29 -58 -31 -18 -4 -20 0 -16 23 l5
27 -17 -22 c-12 -15 -22 -18 -32 -12 -13 8 -6 13 14 10 4 0 7 4 7 9 0 9 -39
15 -64 11 -5 -1 -5 4 1 11 6 7 7 22 3 32 -4 14 -9 16 -14 8 -4 -7 -5 -16 -2
-20 2 -4 -4 -9 -15 -9 -10 -1 -19 2 -19 7 0 4 -8 11 -17 14 -41 15 52 -57 104
-81 l58 -27 -60 -28 c-64 -30 -61 -30 -91 19 -7 10 -16 14 -20 10 -5 -5 0 -15
10 -23 11 -7 17 -17 13 -20 -10 -10 -36 22 -35 42 1 11 -6 31 -16 47 -20 29
-32 36 -22 12 4 -12 -4 -15 -38 -15 -50 0 -56 9 -45 59 5 24 4 38 -7 48 -13
14 -18 28 -15 46 0 4 -3 7 -8 7 -5 0 -14 13 -21 29 -10 25 -9 32 7 48 11 11
27 19 36 17 9 -1 17 2 17 8 0 6 -11 8 -25 6 -27 -6 -34 6 -10 16 8 3 15 18 16
33 0 27 1 28 11 6 6 -13 16 -23 22 -23 6 0 5 5 -2 12 -7 7 -12 26 -12 43 0 16
4 26 8 20 8 -12 33 -28 84 -54 47 -24 40 -4 -12 35 -41 31 -81 102 -90 164 -5
30 -7 25 -14 -35 -5 -38 -15 -90 -22 -115 -7 -24 -11 -46 -9 -48 6 -6 35 98
36 132 2 27 3 26 8 -9 3 -22 4 -42 1 -45 -3 -3 -11 -23 -18 -46 -11 -38 -77
-134 -91 -134 -4 0 -15 6 -24 13 -15 11 -14 20 7 110 13 53 22 97 21 97 -2 0
-15 -25 -29 -56 -32 -71 -63 -114 -82 -114 -8 0 -14 5 -14 10 0 6 4 9 9 8 10
-3 11 1 11 30 0 13 -2 14 -9 4 -4 -7 -14 -12 -21 -10 -8 2 -14 -2 -15 -9 0 -6
-4 -15 -9 -20 -5 -4 -7 4 -4 20 3 17 1 27 -6 26 -31 -4 -42 3 -44 27 -2 22 0
25 13 14 10 -8 15 -9 15 -2 0 6 7 9 15 6 8 -4 17 1 21 10 3 9 12 16 20 16 8 0
14 7 14 15 0 8 5 15 11 15 8 0 8 4 0 14 -9 11 -8 15 5 20 8 3 18 6 20 6 3 0 3
-27 2 -59 -2 -32 -6 -57 -10 -54 -5 2 -8 -11 -8 -29 l1 -33 19 37 c18 34 49
145 50 175 0 7 -6 10 -14 7 -8 -3 -17 -1 -21 5 -3 6 -18 11 -32 11 l-26 0 23
-25 c13 -14 18 -25 12 -25 -6 0 -14 5 -18 12 -4 6 -14 -7 -23 -33 -19 -52 -47
-68 -123 -74 -29 -2 -62 -6 -74 -10 -17 -5 -22 0 -32 33 -16 53 -15 72 4 72
24 0 113 63 121 85 3 11 6 41 6 68 0 26 3 47 7 47 4 0 10 11 12 25 4 21 3 23
-14 14 -10 -5 -30 -28 -44 -49 -15 -22 -30 -40 -35 -40 -4 0 -21 12 -38 26
-20 16 -31 21 -31 12 1 -26 38 -96 61 -113 l24 -17 -27 5 c-16 2 -28 0 -28 -4
0 -5 -5 -9 -11 -9 -8 0 -8 5 1 15 10 12 8 21 -12 47 -67 89 -130 236 -140 323
-3 20 -7 7 -11 -35z m683 -900 c9 -6 17 -5 21 1 4 7 9 4 12 -6 4 -9 3 -13 -3
-10 -16 10 -12 -11 5 -25 16 -13 20 -48 7 -65 -4 -6 -30 -32 -58 -58 l-51 -47
-2 64 c-1 36 -6 80 -12 98 -5 18 -9 34 -9 36 0 8 46 -23 80 -54 20 -19 41 -34
45 -34 14 0 -37 50 -72 71 -18 12 -31 25 -27 30 7 12 45 11 64 -1z m625 -41
c-11 -34 35 -21 48 14 8 20 35 23 43 3 3 -8 -6 -36 -19 -63 -32 -63 -121 -323
-113 -330 3 -4 -1 -17 -9 -30 -10 -15 -16 -48 -16 -91 -1 -87 -19 -233 -32
-249 -5 -7 -15 -13 -21 -13 -9 0 -9 17 0 73 12 63 11 78 -3 122 -10 30 -19 43
-21 32 -5 -25 -53 -46 -119 -53 -46 -4 -65 -1 -93 14 -19 11 -36 27 -38 36 -2
8 11 36 29 61 30 41 33 53 31 105 -1 32 -11 84 -22 115 -11 31 -16 55 -12 53
64 -32 60 -25 60 -107 0 -42 1 -82 1 -88 1 -19 47 -16 91 7 91 47 133 123 144
265 3 33 2 47 -2 32 l-7 -28 -42 42 c-44 43 -55 66 -27 55 9 -3 20 -6 25 -6 5
0 9 -7 9 -15 0 -8 9 -15 20 -15 15 0 20 7 20 25 0 18 10 31 32 45 36 21 52 18
43 -11z m-315 -55 c0 -22 -65 -137 -94 -165 -19 -18 -38 -45 -41 -59 -8 -30
-63 -120 -85 -137 -8 -7 -21 -10 -27 -8 -7 2 -12 -1 -10 -7 1 -6 -11 -12 -27
-15 -16 -2 -34 -10 -40 -17 -19 -23 -45 -26 -56 -8 -11 16 -11 16 -6 0 7 -22
-52 -37 -66 -17 -29 45 46 258 114 321 45 42 51 36 44 -34 -8 -85 -55 -182
-114 -236 -26 -23 -40 -41 -32 -40 8 2 26 15 39 31 28 29 49 34 70 15 10 -9
12 -9 7 -1 -4 7 9 19 36 31 24 10 49 26 57 36 11 13 16 14 22 4 6 -9 9 -6 9 9
0 12 6 28 13 35 6 7 13 20 15 28 2 8 11 23 20 34 9 10 16 21 15 25 -1 3 5 30
13 59 12 42 24 59 61 87 44 33 63 42 63 29z m-133 -97 c-11 -70 -34 -107 -79
-127 -24 -10 -55 -22 -71 -25 l-27 -7 26 63 c33 77 58 106 98 118 54 16 59 14
53 -22z m-323 -24 c-4 -16 -10 -35 -15 -44 -5 -9 -6 -19 -3 -21 2 -3 -2 -11
-11 -18 -21 -17 -19 -35 6 -51 17 -12 19 -18 10 -42 -13 -34 -24 -34 -51 0
-14 18 -19 35 -15 50 3 13 1 23 -5 23 -5 0 -10 -7 -10 -15 0 -8 -5 -15 -11
-15 -6 0 -9 7 -5 15 3 8 2 15 -3 15 -14 0 -61 79 -51 85 6 3 10 2 10 -2 0 -13
78 -46 90 -38 5 3 10 13 10 21 0 8 5 14 10 14 6 0 16 11 22 25 15 34 30 32 22
-2z m-182 -62 c-3 -8 -1 -12 5 -8 6 4 23 -12 39 -36 16 -23 43 -61 60 -83 26
-35 62 -130 52 -139 -13 -13 -97 7 -99 23 -1 4 -2 18 -4 32 -3 33 -21 76 -34
84 -6 4 -8 13 -4 21 3 11 1 13 -10 9 -12 -4 -18 5 -24 38 -5 24 -5 44 -1 46 4
2 3 13 -3 24 -6 11 -8 27 -4 36 5 15 8 13 20 -7 7 -14 10 -32 7 -40z m576 -65
c24 -66 15 -112 -36 -183 -16 -22 -21 -40 -16 -57 7 -28 -22 -86 -43 -86 -8 0
-18 11 -23 25 -5 14 -13 25 -17 25 -5 0 -19 9 -32 19 -23 18 -23 18 -5 47 10
16 27 38 36 48 10 11 18 23 18 27 0 4 18 46 40 93 43 92 57 100 78 42z m-133
-3 c-31 -49 -57 -72 -101 -89 -59 -22 -67 -15 -36 29 19 27 44 46 82 62 72 30
75 30 55 -2z m-39 -158 c-36 -47 -74 -66 -120 -58 -20 3 -36 10 -36 15 0 6 11
8 25 6 14 -3 25 -2 25 3 0 4 15 12 33 18 17 6 46 22 62 35 40 32 44 25 11 -19z
m-240 -85 c-3 -17 -2 -29 3 -26 11 7 19 -46 11 -70 -4 -11 -4 -47 0 -81 4 -34
5 -77 1 -95 -7 -32 -8 -32 -19 -11 -7 12 -12 39 -12 61 0 25 -5 42 -14 45 -10
4 -13 -5 -10 -41 l4 -47 -15 33 c-11 24 -13 38 -5 52 5 10 10 29 11 42 0 22 1
22 9 3 5 -11 9 -15 9 -10 1 6 4 21 7 35 4 20 3 22 -5 10 -8 -11 -11 -12 -11
-2 0 7 -4 10 -10 7 -5 -3 -10 -15 -10 -26 0 -11 -4 -17 -10 -14 -11 7 -13 54
-4 79 3 9 10 13 15 10 5 -3 9 3 9 13 0 22 27 63 42 63 6 0 8 -12 4 -30z m84
15 c14 -4 33 -17 43 -29 13 -16 16 -17 11 -3 -3 9 -2 17 2 17 17 0 75 -40 81
-55 9 -26 -4 -28 -35 -6 -36 25 -43 26 -36 6 9 -23 -6 -18 -65 23 -57 38 -79
69 -45 59 11 -3 30 -8 44 -12z m0 -65 c0 -4 12 -11 26 -14 39 -10 130 -107
138 -147 8 -41 4 -44 -32 -25 -35 18 -78 67 -100 113 -9 18 -24 35 -34 39 -16
5 -48 51 -48 69 0 3 11 -2 25 -11 14 -9 25 -20 25 -24z m183 1 c11 -8 23 -24
28 -33 13 -25 0 -96 -19 -103 -9 -3 -13 -3 -10 1 9 9 -42 75 -53 69 -8 -6 -52
36 -45 43 3 2 17 -2 33 -10 15 -8 44 -22 63 -32 l35 -18 -30 34 c-17 18 -39
44 -50 57 l-20 24 25 -8 c14 -4 33 -15 43 -24z m-498 -71 c6 -20 -9 -60 -24
-60 -4 0 -19 9 -32 21 l-24 21 24 19 c30 24 48 24 56 -1z m389 -847 c4 -38 9
-86 12 -108 4 -40 4 -39 -24 20 -16 33 -36 66 -45 73 -9 8 -13 21 -10 30 7 21
46 61 54 56 4 -2 10 -34 13 -71z"/>
<path d="M2610 3023 c0 -25 10 -29 28 -11 9 9 12 3 12 -28 0 -29 -5 -43 -21
-53 -18 -11 -23 -11 -30 1 -5 7 -9 8 -9 2 0 -21 -87 -38 -128 -26 -33 10 -35
10 -18 -3 25 -19 77 -19 121 -1 29 13 34 13 39 -1 5 -12 11 -10 28 12 16 21
23 24 30 13 5 -8 7 -3 4 16 -3 17 2 39 12 55 15 24 15 25 0 13 -14 -11 -17
-10 -23 9 -6 17 -9 19 -16 8 -8 -12 -11 -12 -19 1 -8 12 -10 11 -10 -7z"/>
<path d="M2087 4312 c-20 -93 -21 -105 -2 -71 13 24 32 149 23 149 -3 0 -12
-35 -21 -78z"/>
<path d="M1992 4307 c-34 -77 -37 -87 -23 -87 10 0 67 148 60 155 -3 2 -19
-29 -37 -68z"/>
<path d="M2277 4268 c5 -76 3 -87 -22 -131 -15 -26 -35 -52 -44 -57 -20 -10
-22 -62 -3 -96 13 -24 10 -50 -6 -66 -19 -19 -14 -26 12 -21 22 5 26 1 31 -31
4 -21 13 -36 21 -36 21 0 17 -27 -6 -33 -11 -3 -18 0 -17 7 1 6 -11 12 -28 14
l-30 3 29 -26 c20 -19 31 -23 40 -15 7 5 16 7 19 4 3 -4 9 6 13 22 5 18 3 29
-4 32 -7 2 -10 8 -6 13 3 5 0 9 -6 9 -6 0 -9 4 -5 9 3 5 1 12 -5 16 -6 4 -8
10 -5 15 3 5 1 11 -5 15 -5 3 -10 16 -10 27 0 12 -5 36 -12 54 -11 30 -9 37
20 84 18 28 32 56 32 61 0 5 7 9 15 9 13 0 14 4 5 20 -6 11 -7 20 -2 20 13 0
23 42 13 54 -5 6 -7 20 -5 30 2 17 -21 76 -30 76 -2 0 -2 -37 1 -82z"/>
<path d="M2406 4341 c-4 -6 -11 -9 -16 -6 -4 3 -10 -1 -13 -9 -6 -16 24 -27
43 -16 9 5 9 13 3 25 -7 12 -12 14 -17 6z"/>
<path d="M1327 4266 c-9 -62 -7 -103 3 -56 6 29 8 24 9 -31 1 -73 19 -145 46
-180 14 -20 16 -21 10 -4 -17 48 -44 176 -52 245 l-8 75 -8 -49z"/>
<path d="M1880 4297 c-12 -10 -14 -28 -10 -92 l5 -80 28 40 c27 40 38 93 15
79 -7 -4 -8 -3 -4 4 7 12 -3 62 -13 62 -3 0 -13 -6 -21 -13z"/>
<path d="M599 4254 c-24 -53 -33 -120 -19 -129 6 -3 10 2 10 12 0 10 11 49 24
86 26 78 16 101 -15 31z"/>
<path d="M732 4253 c-13 -25 -19 -42 -14 -39 16 10 52 75 44 80 -4 2 -17 -16
-30 -41z"/>
<path d="M2330 4266 c0 -27 15 -42 25 -26 4 7 12 7 26 0 26 -14 24 -6 -6 25
-32 31 -45 32 -45 1z"/>
<path d="M1830 4241 c0 -5 -10 -11 -22 -13 -14 -2 -24 -11 -25 -23 -2 -11 0
-14 3 -6 5 11 8 11 15 0 7 -11 9 -10 9 4 0 20 16 23 23 5 3 -7 6 -1 6 15 1 15
-1 27 -4 27 -3 0 -5 -4 -5 -9z"/>
<path d="M2203 4190 c-37 -76 -26 -135 13 -75 16 24 16 27 -1 39 -17 12 -17
13 4 19 14 3 21 13 21 30 0 42 -14 37 -37 -13z"/>
<path d="M2005 4187 c-40 -44 -51 -64 -22 -37 25 21 27 22 21 5 -4 -11 -4 -17
0 -14 6 6 27 69 23 69 -1 0 -11 -10 -22 -23z"/>
<path d="M2057 4195 c-4 -8 -2 -17 3 -20 6 -4 10 -18 10 -33 0 -15 3 -37 6
-49 5 -19 10 -21 25 -12 17 9 18 12 5 37 -7 15 -17 42 -21 60 -7 34 -19 42
-28 17z"/>
<path d="M2601 4172 c-1 -19 -9 -47 -18 -63 -16 -27 -16 -30 0 -46 9 -10 17
-12 17 -6 0 6 -5 13 -11 15 -7 2 -7 12 2 31 l13 28 18 -23 18 -23 0 28 c0 15
-4 27 -9 27 -4 0 -13 15 -19 33 l-10 32 -1 -33z"/>
<path d="M697 4065 c-26 -192 -23 -314 13 -560 l8 -60 0 55 c0 30 3 132 6 225
3 94 2 189 -3 212 -4 23 -5 61 -2 85 4 24 4 72 1 108 l-5 65 -18 -130z"/>
<path d="M1916 4165 c-11 -17 -25 -34 -32 -40 -16 -13 -29 -65 -17 -65 18 0
74 90 71 112 -3 21 -4 21 -22 -7z"/>
<path d="M2550 4183 c-1 -7 -3 -17 -4 -22 0 -5 -4 -12 -8 -16 -4 -4 -4 -13 -1
-21 3 -8 0 -14 -6 -14 -5 0 -16 -18 -22 -40 -7 -22 -16 -40 -21 -40 -4 0 -8
-8 -8 -18 0 -23 -39 -27 -47 -4 -7 18 -28 42 -37 42 -9 0 6 -33 26 -59 10 -13
18 -34 18 -47 0 -12 4 -25 10 -29 11 -7 40 46 40 75 0 11 5 20 10 20 6 0 10 9
10 20 0 11 12 39 26 61 17 28 24 50 21 72 -2 18 -5 26 -7 20z"/>
<path d="M1807 4103 c-17 -57 -15 -86 2 -42 l9 24 6 -25 c3 -14 7 -34 10 -45
3 -11 2 16 -1 60 -3 44 -6 81 -8 83 -1 1 -9 -23 -18 -55z"/>
<path d="M1916 4091 c-27 -30 -4 -113 26 -95 11 7 10 114 0 114 -5 0 -17 -9
-26 -19z"/>
<path d="M2097 4066 c-13 -10 -17 -25 -16 -55 3 -44 5 -44 36 9 29 50 18 75
-20 46z"/>
<path d="M1416 4025 c3 -27 10 -51 14 -53 5 -2 6 -10 3 -18 -3 -8 -1 -14 4
-12 8 3 73 -63 73 -75 0 -2 -9 -7 -20 -10 -12 -3 -20 0 -20 8 0 7 -6 18 -14
25 -8 6 -12 19 -9 27 4 11 2 14 -5 9 -7 -4 -17 3 -24 18 -6 14 -16 26 -21 26
-5 0 -4 -7 3 -15 7 -8 9 -15 5 -15 -5 0 0 -9 10 -20 18 -19 17 -20 -3 -20 -11
0 -28 -3 -37 -6 -13 -5 -15 -2 -9 20 7 31 -11 36 -21 6 -10 -32 4 -43 46 -36
34 5 40 3 59 -24 15 -21 30 -30 48 -30 21 0 24 3 12 10 -12 7 -10 11 10 19 14
5 19 10 13 10 -7 1 -13 6 -13 11 0 6 -15 25 -32 43 -18 18 -43 60 -56 92 l-22
60 6 -50z"/>
<path d="M1511 4062 c-2 -23 22 -106 36 -127 7 -11 13 -14 13 -8 0 7 -4 15
-10 18 -5 3 -10 16 -11 28 -1 26 -26 108 -28 89z"/>
<path d="M1074 4005 l-12 -30 -10 25 c-6 14 -11 20 -11 14 -1 -7 6 -25 14 -40
13 -26 13 -29 -3 -36 -15 -6 -14 -7 4 -7 16 -1 24 -13 38 -60 18 -61 41 -101
57 -101 5 0 -1 17 -14 38 -28 44 -37 74 -46 162 -6 62 -7 64 -17 35z"/>
<path d="M1751 3962 c-17 -33 -35 -63 -41 -67 -24 -15 -9 -27 26 -22 49 8 80
30 92 65 9 27 7 33 -18 57 l-29 27 -30 -60z m59 -10 c-8 -4 -15 -16 -15 -26 0
-11 -6 -21 -13 -24 -11 -3 -12 0 -3 15 7 14 7 23 -1 31 -9 9 -5 12 18 11 18 0
24 -3 14 -7z"/>
<path d="M2617 4014 c-4 -4 0 -14 8 -23 9 -9 22 -25 30 -36 14 -20 14 -20 10
0 -2 11 -4 22 -6 25 -1 3 -2 12 -3 20 -1 16 -27 25 -39 14z"/>
<path d="M2775 3999 c-3 -8 -2 -26 3 -39 l9 -25 7 22 c9 28 -9 67 -19 42z"/>
<path d="M2560 3986 c0 -9 -4 -14 -10 -11 -12 7 -13 -25 -1 -43 5 -9 10 -2 14
24 4 21 4 40 2 43 -3 2 -5 -3 -5 -13z"/>
<path d="M2590 3962 c0 -13 -11 -33 -25 -46 -16 -15 -25 -33 -24 -52 l1 -29
11 33 c8 25 14 31 28 27 14 -5 17 -2 13 9 -3 8 0 24 6 36 9 16 9 25 1 33 -8 8
-11 5 -11 -11z"/>
<path d="M969 3931 c17 -31 111 -67 111 -43 0 13 -47 35 -58 29 -5 -4 -18 3
-30 13 -27 25 -36 25 -23 1z"/>
<path d="M1156 3925 c-3 -9 1 -18 9 -21 8 -4 12 -11 8 -17 -4 -6 2 -8 18 -4
13 4 47 7 75 7 44 0 53 3 57 20 4 18 2 20 -16 14 -12 -4 -23 -11 -25 -15 -6
-15 -46 -10 -80 11 -39 24 -38 24 -46 5z"/>
<path d="M2507 3917 c-4 -10 -15 -17 -24 -15 -14 2 -19 -5 -21 -36 -2 -21 2
-44 8 -50 8 -8 9 -6 5 9 -6 16 -5 17 4 5 6 -8 11 -23 11 -32 0 -10 5 -18 10
-18 6 0 10 -7 10 -17 0 -25 77 -92 101 -86 15 4 19 0 19 -21 0 -20 -4 -24 -17
-19 -10 3 -6 -3 9 -15 34 -28 38 -28 38 4 0 14 3 23 8 20 4 -2 16 2 26 9 18
14 18 14 0 13 -22 -2 -114 34 -114 44 0 3 19 9 41 13 27 5 37 10 29 15 -9 6
-6 10 11 13 19 3 18 5 -8 6 -18 0 -33 -4 -33 -9 0 -18 -42 -27 -71 -17 -22 9
-27 17 -27 44 0 18 -7 44 -16 58 -20 31 -20 45 0 60 9 6 15 18 12 25 -3 10 -6
10 -11 -3z"/>
<path d="M1540 3906 c0 -3 4 -16 10 -30 8 -21 7 -26 -7 -26 -22 0 -14 -6 20
-14 28 -7 28 -6 13 16 -9 12 -16 30 -16 40 0 10 -4 18 -10 18 -5 0 -10 -2 -10
-4z"/>
<path d="M2650 3875 c-5 -14 -33 -48 -62 -75 -56 -53 -58 -58 -12 -37 56 25
104 59 98 69 -4 6 -10 5 -16 -3 -5 -9 -6 -3 -2 16 4 17 11 36 17 43 6 8 6 12
-2 12 -6 0 -16 -11 -21 -25z"/>
<path d="M1070 3842 c0 -6 -10 -8 -22 -5 -14 3 -19 1 -12 -4 6 -4 16 -28 22
-53 l11 -45 -5 43 c-5 34 -3 42 10 42 18 0 21 15 6 25 -5 3 -10 2 -10 -3z"/>
<path d="M828 3675 c-3 -6 -2 -46 4 -90 5 -44 10 -87 10 -95 0 -8 4 -28 9 -45
5 -16 10 -45 11 -64 1 -18 8 -35 15 -38 6 -3 9 -12 6 -21 -4 -9 -2 -14 2 -9 5
4 17 -19 28 -50 11 -34 33 -71 51 -88 39 -39 72 -99 80 -150 3 -22 18 -91 33
-152 21 -94 32 -119 60 -153 19 -22 47 -47 62 -55 23 -11 28 -21 29 -55 2 -39
0 -41 -26 -40 -50 4 -60 0 -65 -22 -5 -21 -5 -21 7 -5 19 25 41 21 69 -13 31
-36 37 -26 37 66 0 50 -9 87 -40 170 -22 59 -45 113 -52 121 -6 7 -9 16 -6 18
8 8 34 -26 61 -78 30 -57 108 -148 100 -117 -3 11 -9 23 -14 25 -4 3 -6 11 -3
18 4 13 -110 156 -127 158 -5 1 -14 2 -20 3 -5 0 -20 26 -33 57 -24 59 -67
130 -150 249 -42 61 -58 95 -81 179 -15 57 -33 145 -39 195 -7 50 -15 86 -18
81z m272 -739 c7 -14 10 -31 7 -40 -4 -11 -1 -13 10 -9 11 4 14 2 9 -5 -4 -7
-2 -12 3 -12 6 0 11 -7 11 -15 0 -8 5 -15 10 -15 6 0 10 -9 10 -21 0 -11 4
-17 10 -14 5 3 9 -2 8 -12 -2 -27 13 -83 23 -83 5 0 9 -7 9 -15 0 -8 -4 -15
-10 -15 -5 0 -10 7 -10 16 0 10 -6 14 -14 11 -8 -3 -21 8 -32 29 -10 19 -22
34 -25 34 -7 0 -25 69 -34 134 -3 21 -8 42 -11 47 -3 5 -1 9 4 9 5 0 14 -11
22 -24z"/>
<path d="M527 3575 c-4 -38 -9 -143 -13 -231 -4 -138 -3 -162 10 -167 31 -12
38 92 23 303 -12 158 -13 162 -20 95z"/>
<path d="M2168 3568 c13 -15 31 -23 51 -22 17 1 32 2 34 4 8 7 47 5 47 -3 0
-5 7 -4 15 3 25 21 17 29 -25 27 -22 -1 -40 -5 -40 -9 0 -5 -9 -8 -20 -8 -11
0 -20 5 -20 11 0 6 -7 9 -15 6 -8 -4 -17 -2 -20 3 -4 6 -11 10 -17 10 -6 0 -2
-10 10 -22z"/>
<path d="M2951 3415 c-2 -31 -36 -69 -55 -62 -15 6 -15 4 0 -26 9 -17 18 -33
19 -35 6 -6 46 120 41 131 -2 7 -5 3 -5 -8z"/>
<path d="M729 2955 c-1 -55 -1 -103 -1 -106 2 -16 -28 -302 -34 -326 -7 -28
-7 -28 14 -10 11 11 31 40 43 65 24 53 41 160 25 165 -6 2 -6 11 -2 23 12 26
8 95 -11 184 -23 116 -32 117 -34 5z m37 -213 c-1 -48 -5 -79 -12 -79 -6 0 -9
18 -8 41 2 23 3 58 3 79 1 20 5 37 9 37 4 0 8 -35 8 -78z"/>
<path d="M2796 2941 c-12 -14 -15 -25 -9 -36 8 -13 11 -9 20 20 13 41 12 42
-11 16z"/>
<path d="M1350 2800 c-54 -53 -61 -74 -16 -45 25 17 26 16 35 -6 5 -15 5 -29
-1 -36 -5 -7 -7 -21 -3 -33 4 -11 8 -34 10 -51 4 -26 2 -29 -11 -19 -12 11
-13 10 -8 -6 5 -17 4 -17 -8 -4 -8 8 -20 21 -28 29 -13 12 -12 13 4 7 19 -7
19 -6 2 12 -9 11 -25 18 -35 15 -14 -4 -10 -11 23 -44 32 -32 45 -39 64 -34
24 6 24 8 17 73 -9 83 -7 139 6 164 21 39 -1 29 -51 -22z"/>
<path d="M961 2785 c-1 -5 8 -52 19 -103 18 -90 54 -162 81 -162 16 0 69 -40
69 -52 0 -7 -17 -9 -47 -5 -39 4 -43 4 -22 -4 15 -6 29 -19 32 -30 3 -10 2
-17 -3 -14 -10 6 -20 -30 -20 -77 0 -33 -16 -85 -30 -98 -14 -12 -58 -110 -47
-104 6 4 -5 -11 -26 -35 -21 -23 -35 -47 -31 -53 5 -7 2 -9 -9 -5 -10 4 -16 2
-14 -6 1 -7 -5 -11 -13 -9 -8 2 -12 0 -8 -3 4 -4 2 -17 -4 -29 -16 -30 52 29
81 71 12 17 35 37 52 43 16 7 29 17 29 23 0 7 -4 7 -12 -1 -7 -7 -17 -12 -22
-12 -6 0 -5 5 2 12 7 7 12 20 12 29 0 10 11 30 24 46 13 15 27 39 31 53 4 14
13 35 21 47 11 18 11 22 -1 27 -22 8 -18 33 9 69 40 55 41 81 3 124 -43 50
-87 110 -83 114 1 2 -14 38 -35 79 -21 41 -38 71 -38 65z m93 -205 c28 -42 27
-47 -4 -30 -24 13 -43 47 -35 60 9 14 10 14 39 -30z"/>
<path d="M1571 2740 c1 -25 3 -38 6 -30 3 8 15 25 26 38 11 12 15 22 9 22 -6
0 -14 -5 -18 -12 -5 -8 -10 -6 -15 8 -5 13 -8 5 -8 -26z"/>
<path d="M785 2591 c-7 -44 -57 -128 -80 -137 -9 -4 -31 -30 -51 -59 -19 -30
-52 -69 -72 -87 -20 -18 -48 -47 -60 -63 -13 -17 -46 -44 -74 -61 l-50 -31 66
1 c49 1 69 -3 76 -14 15 -23 13 -32 -29 -101 -21 -35 -42 -75 -46 -89 l-7 -25
25 25 c13 14 23 28 21 31 -2 3 10 21 26 39 17 19 26 38 23 48 -4 10 -2 13 5 8
18 -11 15 59 -3 74 -8 7 -12 16 -9 21 2 5 -6 11 -20 15 -23 5 -23 7 -8 25 9
10 22 19 28 19 7 0 11 6 10 13 0 6 3 13 9 14 5 1 12 10 16 20 3 10 11 19 18
19 6 1 16 2 21 3 6 0 10 11 10 23 0 12 3 18 7 15 10 -10 33 13 33 33 0 10 7
20 15 24 8 3 15 13 15 22 0 9 6 14 13 11 14 -5 23 6 68 89 17 31 28 63 26 83
-3 43 -14 39 -22 -8z"/>
<path d="M1606 2574 c-3 -31 -2 -73 4 -95 l11 -40 35 53 c19 29 49 65 67 80
l31 26 -27 -5 c-16 -3 -42 3 -67 16 -22 11 -42 21 -44 21 -2 0 -6 -25 -10 -56z"/>
<path d="M1298 2574 c-2 -22 -1 -63 0 -91 4 -63 14 -66 74 -23 22 17 48 30 57
30 14 1 14 2 -1 14 -10 7 -18 22 -18 32 0 29 -13 44 -30 34 -12 -7 -11 -12 5
-31 19 -21 19 -22 1 -16 -15 6 -17 3 -13 -12 3 -14 -3 -25 -19 -36 -32 -21
-34 -20 -34 20 0 27 5 38 23 46 19 8 18 9 -7 4 -26 -5 -28 -4 -17 9 10 12 10
19 -2 37 -15 21 -16 21 -19 -17z"/>
<path d="M310 2555 c-6 -19 -10 -42 -8 -52 2 -9 10 7 19 35 17 57 7 73 -11 17z"/>
<path d="M2 2493 c-1 -41 2 -63 11 -66 10 -4 10 -6 0 -6 -7 -1 -13 -9 -12 -18
0 -11 3 -13 6 -5 13 32 56 -1 56 -42 -1 -19 2 -22 12 -13 9 9 5 22 -18 62 -16
27 -33 52 -37 55 -5 3 -10 26 -13 50 -3 39 -4 37 -5 -17z"/>
<path d="M65 2495 c21 -52 37 -68 21 -21 -7 20 -18 42 -25 49 -8 8 -7 -2 4
-28z"/>
<path d="M1701 2482 c-16 -21 -35 -50 -42 -65 -9 -20 -15 -24 -21 -15 -4 7 -8
9 -8 3 0 -5 4 -16 8 -23 6 -9 14 -2 27 22 15 27 22 33 32 24 15 -12 18 3 4 18
-11 10 13 44 44 62 17 9 17 11 3 12 -9 0 -30 -17 -47 -38z"/>
<path d="M1516 2503 c-4 -5 -13 -8 -19 -8 -19 0 -63 -88 -64 -127 -1 -21 3
-38 8 -38 5 0 9 10 9 23 0 45 64 118 89 103 5 -3 12 1 15 10 12 32 5 35 -26 9
-19 -16 -34 -23 -36 -16 -2 6 7 20 20 31 12 11 20 19 17 20 -3 0 -9 -3 -13 -7z"/>
<path d="M1576 2459 c-23 -64 -59 -208 -68 -271 -9 -65 -15 -80 -35 -94 -53
-34 -60 12 -18 114 13 32 15 46 6 55 -8 8 -11 8 -11 -3 0 -7 -12 -29 -27 -49
-16 -20 -26 -40 -24 -46 2 -5 6 -27 8 -48 l5 -38 -49 29 c-26 17 -58 33 -70
37 -30 8 -29 35 1 68 13 14 22 28 20 30 -3 2 0 15 5 28 5 13 12 32 15 43 6 17
9 16 40 -8 32 -24 36 -25 51 -9 16 16 16 17 -1 30 -20 14 -79 33 -106 33 -9 0
-19 4 -22 9 -8 12 -94 -11 -128 -33 -13 -9 -26 -15 -29 -13 -2 2 20 -20 50
-48 61 -59 60 -70 -8 -116 -20 -13 -43 -33 -52 -44 -9 -11 -41 -33 -71 -48
-30 -16 -68 -39 -84 -53 l-29 -24 38 15 c27 11 37 12 37 3 0 -6 15 2 33 18 17
17 47 41 65 54 l34 23 -16 -31 c-9 -17 -31 -43 -50 -57 -24 -18 -36 -37 -41
-63 -7 -40 -30 -72 -52 -72 -20 0 -16 18 13 56 15 19 22 34 18 34 -18 -1 -64
-50 -64 -68 0 -34 -124 -166 -217 -231 -18 -12 -33 -27 -33 -32 0 -6 -7 -17
-15 -25 -20 -20 -20 -45 0 -38 8 4 13 10 10 14 -7 11 64 72 76 65 14 -9 12
-14 -33 -57 -49 -47 -74 -58 -135 -58 l-46 0 34 -23 c27 -19 36 -21 42 -10 11
17 57 17 57 -1 0 -21 -74 -66 -91 -55 -8 5 -28 9 -46 9 -20 0 -36 7 -42 17
-19 35 -20 6 -2 -43 32 -83 44 -131 38 -160 -4 -25 -3 -26 7 -12 11 15 13 9
15 -35 1 -29 3 -58 3 -64 1 -7 11 -21 22 -30 18 -16 19 -16 8 -1 -15 19 -21
157 -10 228 5 29 4 38 -2 25 -5 -11 -9 -33 -10 -50 -2 -28 -3 -27 -16 14 -25
79 -26 88 -15 71 7 -10 11 -11 11 -3 0 8 10 11 29 7 34 -7 98 29 130 74 23 33
28 53 9 34 -18 -18 -40 -15 -36 5 2 11 14 18 32 20 46 3 50 7 91 88 29 57 50
85 81 106 52 35 110 104 166 196 77 127 118 184 127 179 5 -3 11 1 15 9 7 19
48 3 91 -36 17 -15 39 -30 51 -33 11 -4 26 -22 33 -44 17 -47 49 -82 75 -82
13 0 17 3 9 8 -23 14 0 68 46 106 24 20 50 40 59 45 9 5 14 12 11 15 -3 4 -34
-16 -68 -43 -74 -59 -98 -69 -119 -48 -13 14 -13 17 1 31 8 9 22 16 31 16 8 0
30 8 49 17 30 16 33 22 35 68 2 49 46 247 61 273 5 9 16 -8 30 -47 12 -34 35
-86 52 -117 l29 -56 -16 -57 c-74 -256 -111 -344 -151 -349 -22 -3 -23 0 -23
73 l0 76 -32 -37 -32 -36 -27 33 c-16 19 -33 55 -39 82 -7 26 -16 49 -21 52
-9 6 -69 -21 -69 -31 0 -4 9 -4 21 -1 15 4 18 2 10 -7 -7 -8 -7 -24 -1 -45 5
-19 7 -53 3 -77 -5 -39 -8 -43 -22 -32 -14 12 -14 11 -2 -4 21 -28 31 -21 32
20 1 27 5 16 16 -43 13 -66 14 -88 3 -125 -7 -25 -14 -54 -15 -66 -4 -33 -64
-202 -102 -287 -57 -130 -103 -198 -195 -291 -48 -48 -88 -95 -88 -103 0 -10
-6 -13 -17 -8 -10 4 -25 8 -33 10 -8 2 -35 12 -60 23 -50 21 -100 35 -100 27
0 -4 37 -22 100 -49 15 -6 -55 0 -100 9 -86 17 -133 31 -199 61 -41 19 -76 32
-79 29 -3 -3 30 -21 72 -40 69 -31 77 -37 71 -58 -14 -48 -14 -61 0 -32 8 17
14 36 15 44 0 9 8 11 27 6 16 -4 29 -8 31 -10 6 -5 -31 -115 -38 -115 -13 0
-84 61 -128 108 -24 26 -39 38 -33 27 5 -11 28 -38 50 -60 23 -21 41 -48 41
-60 0 -15 2 -17 9 -6 8 12 13 11 34 -6 l25 -19 -39 -105 c-21 -57 -44 -114
-50 -126 -6 -11 -8 -26 -5 -32 4 -6 2 -11 -3 -11 -6 0 -11 -7 -11 -16 0 -9 -5
-12 -12 -8 -8 5 -9 2 -3 -12 11 -25 10 -38 -9 -110 -8 -33 -18 -87 -21 -120
-12 -118 -25 -178 -39 -186 -12 -7 -13 -15 -4 -41 23 -70 35 -63 42 25 7 81
44 351 51 375 2 7 11 10 20 7 8 -3 12 -10 9 -15 -8 -13 6 -50 16 -44 5 3 12 0
16 -6 4 -8 3 -9 -4 -5 -21 13 -13 -10 11 -33 13 -12 38 -50 56 -85 33 -67 132
-177 139 -156 3 7 -10 26 -27 42 -17 16 -31 36 -31 44 0 10 9 6 26 -13 l26
-28 -21 29 c-12 16 -19 31 -17 34 8 8 85 -70 117 -118 28 -41 30 -42 24 -15
-5 23 -4 26 4 15 14 -20 14 -80 0 -80 -6 0 -17 -7 -26 -15 -17 -17 -34 -16
-41 3 -2 7 5 12 15 13 13 0 14 2 3 6 -8 3 -23 15 -35 26 l-20 20 28 -7 c24 -6
27 -5 15 8 -7 7 -16 12 -20 10 -3 -2 -18 0 -32 6 -20 7 -26 6 -26 -4 0 -25 65
-101 88 -104 22 -3 86 40 76 51 -7 6 22 65 44 90 8 9 23 17 32 17 10 0 24 8
31 17 11 15 11 16 -1 6 -8 -7 -18 -13 -22 -13 -14 0 -8 22 10 36 16 13 16 14
-1 8 -15 -5 -16 -3 -8 18 17 46 161 339 176 361 16 21 16 21 10 -13 -16 -89
-16 -146 -1 -188 14 -39 14 -45 1 -59 -8 -8 -15 -19 -15 -25 0 -6 10 2 21 16
14 18 28 26 40 23 10 -3 20 0 22 7 2 6 10 -7 17 -29 7 -22 16 -44 21 -49 13
-14 11 -5 -7 45 -18 49 -19 57 -32 150 -6 37 -7 88 -5 113 6 54 32 78 124 120
30 14 48 25 41 25 -7 1 -26 -6 -43 -14 -16 -9 -35 -13 -41 -9 -7 4 -8 3 -4 -4
4 -7 2 -12 -4 -12 -6 0 -21 -9 -33 -20 -12 -12 -23 -17 -25 -12 -4 14 35 172
57 233 25 67 85 161 96 151 5 -4 5 -2 1 5 -3 6 5 24 19 40 l24 28 1 -25 c0
-15 4 -30 8 -35 5 -6 19 -39 32 -75 13 -36 27 -70 33 -77 11 -16 -18 -110 -44
-139 -28 -30 -23 -37 6 -8 29 29 47 27 55 -6 l6 -23 17 27 18 27 20 -23 c11
-13 19 -18 17 -13 -10 26 -34 71 -41 76 -10 7 -86 184 -90 210 -2 10 -9 25
-15 31 -7 7 -12 32 -13 58 0 39 -2 42 -12 26 -7 -11 -20 -28 -29 -38 -10 -10
-18 -21 -18 -25 0 -5 -14 -28 -31 -53 -58 -87 -320 -622 -386 -790 -24 -60
-66 -120 -84 -120 -17 0 -19 41 -5 69 10 19 12 32 6 36 -6 3 -10 -1 -10 -9 0
-8 -5 -18 -11 -22 -8 -5 -9 18 -5 82 14 181 26 311 36 378 5 38 11 84 12 103
1 19 6 37 10 39 4 3 8 27 8 54 0 30 6 54 15 64 13 13 13 15 -7 19 l-23 4 22 8
c13 4 20 11 17 16 -2 5 7 19 22 31 62 54 143 141 138 149 -3 5 2 9 10 9 8 0
18 10 22 23 3 12 12 29 20 37 7 8 15 26 17 40 8 37 18 60 28 60 5 0 8 3 7 8
-2 8 9 45 27 87 14 32 41 115 75 235 22 74 22 74 36 47 8 -15 26 -30 40 -33
l26 -7 -5 -134 c-4 -105 -8 -137 -21 -146 -22 -17 -36 -62 -30 -94 3 -16 -1
-41 -10 -58 -9 -16 -16 -44 -16 -61 0 -37 -26 -104 -40 -104 -6 0 -10 -5 -10
-12 0 -6 -11 -26 -25 -44 -14 -18 -25 -36 -25 -40 0 -16 -53 -114 -62 -114 -5
0 -6 -4 -3 -10 3 -5 1 -10 -5 -10 -6 0 -8 -4 -5 -10 3 -5 1 -10 -5 -10 -7 0
-9 -7 -6 -16 3 -8 2 -13 -3 -10 -5 3 -15 -14 -22 -38 -7 -26 -17 -42 -23 -39
-6 4 -8 3 -4 -2 4 -4 2 -17 -4 -29 -13 -23 -15 -28 -17 -53 -1 -16 -3 -16 -11
-3 -8 13 -10 12 -11 -5 -1 -11 -1 -24 0 -29 1 -4 -4 -14 -10 -22 -6 -8 -9 -14
-5 -14 3 0 -8 -28 -26 -62 -18 -35 -31 -67 -30 -71 1 -4 -9 -33 -24 -65 -56
-125 -54 -120 -38 -126 9 -3 12 -1 9 4 -8 13 137 356 220 520 42 84 135 251
174 312 32 51 37 66 30 86 -11 30 7 72 38 87 l22 11 -20 21 c-26 25 -19 74 14
100 21 17 22 27 23 167 1 81 6 151 10 155 5 3 20 19 33 34 l25 27 -31 -6 c-25
-5 -34 -1 -52 22 -21 27 -57 131 -48 140 3 3 14 -10 25 -28 42 -68 91 -96 137
-77 11 4 15 8 9 8 -6 1 6 34 26 74 21 39 54 131 74 204 l37 132 -34 68 c-19
37 -42 93 -52 123 -20 62 -32 80 -39 59z m-264 -159 c-2 -19 -8 -43 -13 -53
-14 -25 -53 -17 -79 16 l-21 27 28 25 c19 17 38 24 58 22 28 -2 30 -4 27 -37z
m-46 -115 c-12 -38 -26 -47 -26 -16 0 29 11 51 25 51 9 0 10 -8 1 -35z m85
-172 c6 -16 19 -70 30 -122 20 -100 48 -158 82 -170 21 -8 20 -8 -6 -34 -14
-15 -31 -27 -36 -27 -22 0 -46 58 -71 174 -15 66 -30 131 -34 144 -5 13 -3 22
3 22 6 0 11 9 11 20 0 28 9 25 21 -7z m99 -47 c-8 -8 -15 -6 -26 9 -14 18 -13
20 8 26 26 6 37 -16 18 -35z m40 -102 c0 -40 -4 -55 -12 -52 -17 6 -22 62 -8
88 17 31 20 25 20 -36z m-520 -23 c0 -15 -30 -41 -46 -41 -20 0 -18 9 9 31 24
20 37 24 37 10z m-215 -896 c33 -8 75 -15 94 -15 34 0 34 0 28 -41 -3 -22 -7
-43 -10 -45 -6 -6 -102 30 -132 50 -16 11 -22 22 -19 34 7 19 -23 -27 -45 -70
-14 -27 -38 -40 -28 -15 2 6 13 36 23 65 10 28 21 52 24 52 3 -1 32 -7 65 -15z
m178 -22 c3 -5 -2 -53 -9 -108 -27 -190 -44 -365 -50 -520 -4 -89 -11 -150
-15 -143 -27 42 3 661 36 766 5 13 31 17 38 5z m-105 -84 c37 -11 43 -16 38
-33 -3 -12 -11 -83 -18 -158 -6 -76 -15 -138 -18 -138 -4 0 -12 30 -18 68
l-10 67 5 -65 c3 -36 9 -83 14 -105 5 -22 9 -98 9 -169 l0 -130 -25 35 c-14
19 -63 72 -108 119 -45 47 -101 106 -125 131 l-42 46 26 79 c14 43 35 96 45
117 11 21 17 41 15 46 -7 10 16 71 26 71 5 0 1 -14 -7 -31 -9 -17 -14 -33 -11
-36 2 -3 12 9 21 26 l16 31 39 -20 c22 -11 46 -20 54 -20 9 0 19 -16 26 -42
15 -60 18 -66 19 -42 2 38 -30 111 -65 152 -46 54 -43 68 9 38 23 -13 61 -30
85 -37z m-77 -43 c6 -10 7 -17 2 -15 -4 2 -25 11 -45 19 -41 15 -44 21 -27 52
11 20 12 20 35 -8 13 -16 29 -37 35 -48z m822 14 c12 -23 13 -31 2 -40 -19
-16 -40 16 -36 58 2 21 19 13 34 -18z m-323 -143 c-17 -96 -19 -128 -11 -198
9 -85 4 -109 -24 -109 -15 0 -29 75 -26 135 5 92 63 307 78 291 2 -2 -5 -56
-17 -119z m-585 -338 c4 -11 11 -17 16 -14 5 4 9 -2 9 -13 0 -10 10 -27 22
-38 19 -16 20 -16 9 -1 -17 22 -9 33 9 12 11 -13 11 -20 0 -40 l-13 -25 -16
23 c-9 12 -16 26 -16 32 0 5 -15 31 -32 57 -18 26 -33 50 -33 54 0 13 39 -28
45 -47z"/>
<path d="M2575 2448 c-11 -34 -45 -174 -45 -189 0 -9 -7 -22 -15 -29 -8 -7
-15 -18 -15 -24 0 -6 5 -4 10 4 20 31 10 -24 -10 -58 -22 -36 -26 -62 -9 -62
5 0 7 4 4 10 -8 13 23 58 44 65 14 4 20 27 30 113 6 59 14 124 17 145 5 35 -2
51 -11 25z"/>
<path d="M1516 2389 c-22 -71 -39 -175 -33 -191 3 -7 6 -1 6 13 1 15 12 71 26
124 27 103 27 144 1 54z"/>
<path d="M1783 2428 c-12 -17 -34 -68 -29 -68 8 0 48 71 44 76 -3 2 -9 -1 -15
-8z"/>
<path d="M0 2327 c0 -6 13 -25 30 -40 17 -16 30 -35 30 -43 0 -8 4 -14 9 -14
17 0 -3 55 -31 82 -32 31 -38 34 -38 15z"/>
<path d="M181 2235 c0 -22 4 -47 9 -55 8 -11 9 -8 4 12 -4 19 -1 29 13 37 16
9 16 10 1 11 -9 0 -19 8 -21 18 -3 9 -5 -1 -6 -23z"/>
<path d="M1720 2236 c0 -11 80 -136 87 -136 5 0 4 2 -49 85 -21 33 -38 56 -38
51z"/>
<path d="M239 2183 c2 -34 -1 -50 -12 -58 -9 -6 -17 -30 -19 -56 l-4 -44 -8
40 c-10 51 -34 105 -47 105 -6 0 -6 -6 -1 -17 6 -10 19 -56 31 -103 12 -46 26
-89 32 -95 7 -7 8 -4 3 10 -5 15 -4 17 4 10 7 -6 15 -26 18 -45 7 -32 6 -34
-9 -21 -24 19 -21 8 9 -36 14 -21 42 -69 61 -107 19 -37 37 -66 39 -63 3 3 -1
18 -9 34 -33 64 -98 265 -96 300 2 63 10 93 25 93 17 0 43 -60 48 -109 4 -44
25 -86 36 -75 5 5 0 35 -11 68 -23 71 -24 96 -4 96 17 0 65 -91 65 -122 0 -10
5 -18 10 -18 6 0 10 -8 10 -17 0 -15 -2 -14 -14 3 -12 15 -17 17 -27 7 -10
-10 -10 -13 -1 -13 6 0 28 -31 47 -70 36 -71 43 -96 25 -85 -13 8 -13 -1 1
-26 6 -11 14 -66 17 -121 l7 -101 32 49 c17 27 45 62 62 78 17 17 31 35 31 41
0 12 84 75 101 75 6 0 8 -7 5 -16 -5 -12 -2 -15 10 -10 8 3 20 6 25 6 5 0 9 6
9 14 0 15 64 80 80 82 23 3 24 6 5 13 -16 6 -28 -2 -63 -41 -46 -51 -62 -59
-62 -31 0 14 -2 15 -17 1 -10 -8 -30 -18 -45 -22 -16 -3 -28 -11 -28 -17 0 -6
-4 -7 -10 -4 -5 3 -10 2 -10 -4 0 -6 -22 -33 -48 -61 l-49 -51 -1 36 c-1 20
-5 41 -8 47 -4 7 -9 23 -10 37 -7 64 -14 95 -26 102 -11 7 -10 13 0 30 8 11 9
18 4 15 -5 -3 -12 11 -16 32 -6 37 -47 123 -72 153 -21 23 -18 41 6 34 30 -9
24 8 -8 23 -47 23 -52 24 -52 12 0 -6 5 -8 12 -4 8 5 9 2 5 -10 -4 -10 -3 -15
3 -11 6 3 10 2 10 -4 0 -19 -20 -23 -50 -9 -24 10 -30 19 -32 52 -2 22 -8 41
-13 43 -6 2 -9 -15 -6 -44z"/>
<path d="M71 2185 c-1 -17 4 -36 9 -41 15 -15 22 -105 9 -120 -7 -8 -7 -14 -2
-14 11 0 53 -93 53 -118 0 -12 -2 -12 -17 -1 -11 9 -10 3 6 -18 27 -39 29 -40
40 -10 6 16 3 29 -10 46 -11 13 -19 29 -19 35 0 6 9 0 19 -13 30 -40 33 -7 3
45 -15 27 -41 92 -59 144 -22 68 -32 86 -32 65z"/>
<path d="M1711 2153 c-7 -15 -39 -119 -85 -278 -4 -11 1 -4 10 15 9 19 28 76
41 125 14 50 31 101 37 114 13 23 14 22 59 -51 38 -60 47 -84 47 -120 0 -52
-21 -128 -57 -207 -14 -31 -27 -61 -28 -67 -2 -7 -20 -38 -41 -70 -20 -33 -53
-88 -73 -124 -19 -36 -45 -76 -58 -90 -13 -14 -23 -28 -23 -32 0 -5 -7 -8 -15
-8 -11 0 -15 13 -16 53 0 28 -2 89 -3 135 -2 45 1 85 5 88 5 3 6 10 3 16 -4 6
2 17 12 25 10 8 17 15 15 16 -6 3 28 55 52 82 19 21 33 62 24 72 -3 3 -10 -10
-15 -28 -5 -21 -21 -42 -40 -56 -18 -11 -28 -23 -22 -25 6 -2 -3 -21 -19 -44
l-30 -40 -2 -208 c-2 -204 -2 -206 -21 -189 -19 17 -19 17 -7 -11 12 -26 11
-30 -10 -47 -18 -15 -19 -19 -7 -19 9 0 16 5 16 10 0 20 19 10 23 -12 l4 -23
2 23 c0 12 9 35 19 49 11 19 13 24 3 19 -11 -7 -12 -2 -6 30 4 21 9 42 11 46
18 29 74 -27 74 -74 0 -28 -7 -34 -65 -53 -19 -6 -18 -8 8 -27 35 -26 37 -69
3 -96 l-24 -19 43 -89 c24 -49 44 -82 44 -73 2 28 29 29 61 2 41 -34 48 -24
10 15 -16 18 -30 28 -30 24 0 -4 -10 -8 -22 -9 -18 -2 -27 7 -40 35 -29 65
-30 82 -13 118 10 21 14 46 11 60 -4 13 -6 27 -5 30 0 4 -5 11 -13 15 -9 6 -9
9 -1 9 21 0 43 31 43 61 0 34 33 105 137 294 21 39 46 101 79 195 l34 95 -5
-90 c-3 -49 -8 -98 -11 -107 -3 -10 -1 -18 4 -18 12 0 22 108 21 225 l0 90
-24 -92 c-14 -51 -45 -138 -69 -193 -47 -107 -175 -340 -187 -340 -3 0 -11 6
-17 13 -8 9 1 32 34 86 24 40 44 75 44 78 0 3 8 17 19 31 36 51 129 247 150
316 12 37 21 94 21 125 0 50 -5 64 -50 134 -27 42 -52 77 -54 77 -3 0 -9 -8
-15 -17z"/>
<path d="M1073 2144 c3 -4 2 -14 -3 -24 -9 -16 -7 -16 24 -1 20 10 29 19 22
23 -13 9 -52 11 -43 2z"/>
<path d="M1222 2086 c-13 -19 -34 -37 -45 -39 -12 -2 -4 -5 17 -6 22 0 36 2
33 6 -4 3 3 21 14 40 27 44 11 43 -19 -1z"/>
<path d="M50 1995 c-10 -12 -10 -18 1 -32 12 -15 12 -16 -3 -10 -14 5 -18 1
-18 -18 0 -18 5 -25 20 -25 21 0 44 -34 37 -55 -3 -7 10 -28 29 -46 19 -18 34
-39 34 -46 0 -7 8 -13 19 -13 10 0 24 -7 31 -15 7 -8 17 -15 22 -15 5 0 22
-10 38 -22 16 -12 32 -19 36 -16 3 3 -25 29 -62 56 -75 57 -147 139 -140 158
3 7 -4 31 -15 54 -11 22 -17 45 -14 50 10 15 -1 12 -15 -5z"/>
<path d="M1270 1979 c16 -29 9 -52 -17 -54 -12 -1 -20 2 -17 6 2 4 -12 19 -33
34 -35 23 -38 24 -43 8 -8 -26 -65 -134 -112 -211 -48 -78 -204 -388 -243
-482 -15 -36 -40 -93 -56 -128 -56 -122 -39 -116 22 8 79 159 99 207 92 214
-4 3 -1 6 6 6 7 0 9 5 6 10 -3 6 -2 10 3 10 5 0 22 28 37 63 69 154 148 311
152 301 7 -20 -46 -162 -130 -344 -91 -199 -176 -380 -184 -392 -2 -5 -1 -8 4
-8 4 0 21 28 37 63 17 34 58 122 93 196 35 73 73 156 85 183 11 27 23 47 25
44 2 -2 -5 -39 -16 -82 -10 -44 -31 -142 -45 -219 -15 -77 -31 -160 -37 -184
-5 -24 -8 -46 -5 -48 7 -7 17 42 101 460 8 37 11 75 8 84 -4 11 -2 14 5 9 10
-6 32 49 32 81 0 21 92 294 97 289 3 -3 -6 -51 -20 -108 -14 -57 -37 -159 -52
-228 -15 -69 -37 -174 -51 -235 -13 -60 -30 -138 -38 -173 -7 -34 -9 -65 -5
-68 5 -3 42 28 82 68 79 81 150 203 207 358 17 46 36 91 43 99 9 12 6 12 -15
-1 -14 -10 -28 -14 -30 -10 -2 5 -12 -11 -24 -35 -23 -48 -18 -58 8 -15 15 24
17 25 15 5 0 -12 -5 -19 -9 -17 -4 3 -8 -6 -8 -19 0 -24 -53 -140 -96 -208
-13 -20 -20 -40 -17 -43 4 -3 0 -6 -8 -6 -8 0 -30 -23 -49 -50 -19 -27 -40
-50 -47 -50 -6 0 -14 -6 -16 -12 -3 -7 -3 1 -2 17 2 17 4 32 5 35 2 3 2 8 1
12 0 4 6 34 15 65 9 32 17 69 19 83 1 14 3 27 5 30 1 3 4 14 5 25 2 11 6 38 9
60 6 47 37 194 67 320 12 50 24 102 26 118 7 38 16 40 44 11 23 -24 24 -32 22
-147 0 -67 -6 -144 -12 -171 -15 -62 -7 -73 10 -15 8 26 13 100 14 176 0 73 2
133 6 133 3 0 10 -5 16 -11 17 -17 31 -3 38 41 5 27 3 46 -5 55 -18 22 -32 18
-20 -6z"/>
<path d="M1890 1952 c0 -25 20 -50 56 -71 52 -31 68 -20 17 12 -23 14 -48 36
-57 49 -9 12 -16 17 -16 10z"/>
<path d="M2310 1949 c0 -32 175 -307 188 -295 2 3 -4 17 -14 32 -54 76 -73
110 -69 122 2 6 0 12 -4 12 -13 0 -81 97 -81 114 0 8 -4 18 -10 21 -5 3 -10 1
-10 -6z"/>
<path d="M985 1754 c-104 -165 -129 -207 -174 -289 -24 -44 -48 -82 -53 -83
-4 -2 -6 -8 -2 -13 3 -5 0 -9 -6 -9 -10 0 -8 54 6 119 4 19 3 22 -4 11 -5 -8
-20 -71 -32 -140 -24 -133 -59 -249 -59 -197 -1 25 23 199 35 256 5 23 4 24
-6 8 -16 -26 -32 -124 -44 -284 -2 -24 1 -43 6 -43 4 0 8 1 8 3 0 2 25 63 55
136 60 148 82 189 232 440 57 95 102 175 101 177 -2 1 -30 -40 -63 -92z"/>
<path d="M805 1819 c-9 -28 -113 -138 -180 -189 -69 -53 -65 -64 4 -16 28 20
55 36 61 36 5 0 10 6 10 14 0 7 12 22 28 32 31 21 132 118 132 128 0 3 -12 -1
-27 -11 -17 -10 -23 -11 -15 -3 14 17 16 30 3 30 -5 0 -13 -9 -16 -21z"/>
<path d="M1272 1745 c-1 -27 -4 -68 -7 -90 l-5 -40 11 40 c5 22 8 63 6 90 l-3
50 -2 -50z"/>
<path d="M2330 1747 c0 -8 25 -55 54 -102 69 -109 67 -107 82 -94 13 10 18 6
15 -13 0 -5 4 -8 9 -8 6 0 10 4 10 9 0 8 -59 84 -122 156 -10 11 -24 29 -32
40 -9 11 -16 17 -16 12z"/>
<path d="M124 1681 c10 -11 23 -18 27 -15 20 12 7 -14 -20 -40 -16 -16 -29
-37 -28 -47 1 -16 11 -18 124 -16 68 1 123 5 123 8 0 3 -18 11 -41 18 -22 7
-58 28 -79 48 -22 19 -51 36 -65 37 -14 0 -25 4 -25 7 0 4 -8 10 -17 13 -15 6
-15 5 1 -13z m74 -66 c1 -20 -4 -23 -41 -27 -23 -3 -43 -4 -45 -3 -2 2 9 16
23 33 29 35 60 34 63 -3z"/>
<path d="M360 1660 c0 -6 18 -39 40 -74 22 -35 40 -66 40 -69 0 -14 -60 -35
-135 -46 -44 -7 -93 -14 -108 -16 -18 -3 -27 0 -26 8 1 6 1 21 0 32 -1 18 -2
19 -12 3 -5 -10 -17 -18 -25 -18 -8 0 -12 -5 -9 -10 4 -6 10 -8 15 -5 4 3 13
-1 19 -9 9 -11 9 -15 -1 -19 -7 -3 3 -3 22 0 l35 6 -28 -32 c-15 -18 -27 -38
-27 -44 1 -12 20 8 50 50 9 13 31 24 59 28 l43 7 -28 -32 c-16 -18 -46 -43
-66 -56 -26 -16 -36 -29 -31 -40 4 -10 -1 -17 -16 -21 -11 -3 -21 -9 -21 -13
0 -4 -7 -10 -15 -14 -22 -8 -18 6 10 37 14 15 22 27 17 27 -12 0 -52 -48 -52
-63 0 -9 -11 -13 -30 -12 -17 1 -27 -2 -23 -8 4 -6 -2 -8 -15 -5 -15 4 -22 2
-22 -8 0 -8 -4 -14 -10 -14 -5 0 -10 -15 -9 -32 l1 -33 12 34 c12 35 51 56 80
45 14 -6 94 50 103 72 3 8 22 22 42 30 20 8 45 29 56 47 18 27 83 71 93 62 2
-2 -1 -13 -8 -24 -16 -30 -4 -26 30 12 l29 32 1 -52 c0 -28 -4 -55 -10 -58 -5
-3 -10 -11 -10 -16 0 -6 5 -7 10 -4 12 8 13 -9 1 -55 -5 -19 -12 -71 -15 -115
-6 -76 -6 -78 7 -43 8 20 17 71 21 113 4 41 11 86 16 98 7 19 9 17 15 -20 5
-25 13 -43 21 -43 9 0 14 -17 16 -52 3 -54 -8 -98 -24 -98 -9 0 -6 24 8 85 3
11 -7 -2 -20 -30 -29 -57 -30 -59 -16 -50 13 8 13 -21 -1 -48 -20 -38 48 32
81 84 32 49 35 59 20 59 -5 0 -10 -9 -10 -19 0 -22 -19 -39 -21 -19 -1 7 -3
31 -4 53 -4 63 -4 65 -18 59 -10 -3 -20 22 -38 92 l-24 96 35 29 c19 16 40 29
47 29 7 0 13 5 13 10 0 6 -13 4 -30 -5 -16 -8 -35 -15 -43 -15 -8 0 -34 29
-58 65 -44 67 -49 72 -49 55z"/>
<path d="M1825 1553 c-3 -32 -10 -74 -15 -93 -5 -19 -10 -56 -11 -82 -2 -27
-7 -48 -12 -48 -5 0 -7 -9 -4 -20 3 -12 -3 -58 -14 -103 -11 -45 -21 -89 -23
-97 -15 -69 -20 -76 -64 -105 -25 -16 -48 -37 -50 -45 -3 -10 4 -7 20 7 13 13
38 26 55 29 32 6 32 8 58 118 45 196 89 496 73 496 -3 0 -9 -26 -13 -57z"/>
<path d="M2645 1471 c48 -61 75 -117 75 -155 0 -29 15 -43 24 -21 7 18 -6 61
-36 118 -5 10 -6 23 -2 29 4 7 3 8 -4 4 -8 -5 -12 4 -13 26 -1 31 -1 32 -9 8
-5 -17 -8 -19 -9 -7 -1 9 -7 16 -13 15 -7 -2 -12 3 -10 10 1 6 -4 11 -10 10
-7 -2 -12 2 -11 8 1 6 -4 11 -12 11 -8 0 4 -23 30 -56z"/>
<path d="M2610 1465 c0 -11 7 -28 15 -38 7 -11 11 -25 9 -32 -5 -13 7 -29 56
-70 19 -16 16 -6 -19 60 -50 92 -61 107 -61 80z"/>
<path d="M2510 1437 c0 -4 23 -46 50 -94 28 -48 50 -91 50 -97 0 -5 3 -7 6 -4
3 4 -15 46 -41 95 -44 83 -65 116 -65 100z"/>
<path d="M92 1405 c-24 -27 -28 -45 -12 -45 6 0 10 5 10 10 0 6 12 22 26 35
18 17 22 25 12 25 -8 0 -24 -11 -36 -25z"/>
<path d="M214 1265 c6 -39 3 -50 -22 -87 -55 -81 -67 -110 -89 -222 -3 -17 4
-58 17 -102 l23 -73 -38 -113 c-30 -88 -40 -133 -43 -200 -4 -85 -4 -88 25
-121 l30 -34 -13 -74 c-7 -41 -16 -111 -19 -157 l-7 -82 36 0 c31 0 36 3 36
24 0 13 3 31 6 40 3 9 1 16 -6 16 -6 0 -9 -3 -6 -8 2 -4 -3 -16 -11 -27 -14
-18 -15 -14 -8 45 4 36 9 86 10 112 2 26 6 51 9 56 7 12 -22 93 -41 114 -23
26 -11 171 22 271 31 94 48 179 37 186 -4 3 -16 27 -26 53 -25 67 -14 123 49
248 35 70 38 73 52 55 10 -12 14 -14 11 -5 -3 9 -11 41 -18 73 -14 68 -25 76
-16 12z"/>
<path d="M2719 1235 c-9 -19 -13 -35 -8 -35 4 0 10 -21 12 -47 3 -43 4 -42 4
12 1 33 4 70 8 83 11 33 2 26 -16 -13z"/>
<path d="M2831 1161 c-11 -27 -21 -53 -21 -57 0 -10 -64 -103 -71 -104 -3 0
-16 25 -28 56 -17 40 -22 67 -18 97 4 27 2 36 -4 26 -5 -7 -9 -23 -9 -34 0
-17 -2 -18 -11 -5 -9 12 -10 11 -4 -5 20 -57 24 -79 15 -89 -5 -7 -6 -32 -3
-56 6 -44 7 -44 14 -15 5 16 6 39 3 52 -9 33 3 28 22 -8 12 -25 14 -37 5 -55
-6 -13 -15 -24 -20 -24 -5 0 -11 -9 -14 -21 -4 -16 -3 -18 9 -8 11 9 16 7 23
-12 9 -22 10 -22 10 9 1 22 5 32 14 29 13 -4 40 50 31 64 -3 5 2 16 10 25 12
12 16 12 17 2 0 -7 7 12 15 41 17 62 19 66 33 56 16 -9 14 -40 -3 -54 -18 -16
-38 -71 -25 -71 5 0 9 -12 9 -26 l0 -26 18 23 c12 14 21 18 25 11 4 -5 -6 -24
-23 -40 -16 -17 -30 -39 -29 -49 0 -10 3 -13 6 -5 2 6 9 12 14 12 6 0 5 -8 -1
-20 -6 -11 -15 -18 -21 -15 -5 4 -9 -1 -9 -10 0 -9 -9 -34 -19 -55 -11 -22
-15 -40 -9 -40 6 0 8 -7 5 -15 -8 -20 8 -28 22 -11 9 11 8 15 -4 20 -15 5 -15
7 -1 22 9 8 16 22 16 30 0 8 7 14 16 14 14 0 14 3 4 15 -7 8 -9 15 -6 15 4 0
14 -7 22 -15 9 -8 11 -15 6 -15 -5 0 -14 -16 -20 -36 -8 -28 -8 -33 2 -25 7 6
16 8 19 4 4 -3 7 -1 7 5 0 7 5 12 11 12 7 0 5 -10 -5 -25 -9 -14 -14 -30 -11
-35 3 -5 -3 -17 -13 -27 -11 -10 -22 -25 -24 -33 -5 -12 -7 -12 -13 3 -5 11
-1 25 10 37 10 11 16 22 14 25 -3 2 -31 -20 -63 -50 -56 -54 -66 -74 -16 -35
26 21 50 26 50 11 0 -14 -26 -32 -35 -23 -5 4 -5 2 -2 -5 7 -10 -27 -45 -67
-68 -13 -7 14 -9 88 -8 64 1 104 -2 101 -8 -4 -5 1 -9 10 -9 9 0 15 -6 12 -12
-2 -8 -17 -12 -37 -10 -21 2 -30 0 -25 -7 3 -6 16 -11 29 -11 33 0 39 -11 19
-33 -10 -11 -12 -17 -5 -13 7 5 12 1 12 -10 0 -13 -3 -14 -15 -4 -8 7 -15 18
-15 25 0 7 -7 16 -16 19 -25 9 -29 7 -12 -6 8 -7 18 -24 21 -36 5 -21 3 -23
-16 -17 -12 3 -38 10 -57 15 -41 11 -71 43 -45 48 9 2 25 -4 36 -14 18 -16 19
-16 13 -1 -3 10 -1 17 6 17 6 0 8 5 5 10 -3 6 0 10 8 10 8 0 18 7 21 16 5 13
4 14 -7 6 -8 -7 -17 -9 -20 -5 -4 3 -9 -2 -13 -11 -8 -20 -69 -21 -104 -1 -44
25 -57 16 -20 -14 29 -25 32 -31 21 -45 -11 -14 -11 -16 2 -16 8 0 17 3 20 8
2 4 2 1 1 -5 -2 -7 5 -18 14 -25 10 -7 17 -25 17 -40 l0 -27 -42 41 c-24 23
-42 47 -40 54 1 6 -12 23 -29 37 -37 31 -55 36 -30 8 19 -20 11 -56 -18 -80
-13 -11 -17 -10 -26 13 -20 54 -60 237 -60 278 0 38 -1 40 -14 23 -8 -11 -13
-22 -11 -25 8 -13 13 -160 6 -160 -5 0 -14 -14 -22 -31 -10 -27 -14 -29 -24
-16 -8 12 -11 0 -12 -54 -2 -70 26 -191 47 -204 13 -8 13 -8 -6 66 -19 74 -14
154 12 199 23 38 30 38 37 0 4 -16 16 -50 27 -74 11 -25 20 -54 20 -66 0 -23
-34 -96 -58 -123 -15 -16 -14 -17 2 -11 17 7 17 5 1 -25 -9 -18 -14 -35 -12
-38 3 -2 10 5 17 16 11 22 35 19 26 -4 -2 -7 -1 -16 3 -21 12 -13 21 -68 13
-81 -4 -6 -22 -8 -39 -6 -28 4 -33 10 -33 31 0 20 -3 23 -12 14 -23 -23 6 -58
52 -66 31 -5 40 -10 36 -21 -3 -9 1 -15 10 -15 25 0 26 25 5 107 -34 135 -35
124 14 219 24 47 46 91 48 97 3 11 137 -122 170 -170 12 -18 28 -33 35 -33 17
0 15 5 -17 42 -23 26 -61 122 -61 152 0 4 18 -3 39 -14 27 -13 50 -18 70 -14
26 5 32 2 42 -19 10 -23 46 -47 69 -47 6 0 10 11 10 23 0 24 -33 47 -65 47
-18 0 -20 16 -4 26 16 10 6 144 -12 155 -8 5 -44 7 -82 3 l-67 -6 53 53 c77
79 94 147 56 227 -21 42 -21 46 -5 78 18 39 22 124 6 140 -6 6 -12 41 -13 77
-1 37 -5 67 -8 67 -4 0 -16 -22 -28 -49z m49 -136 c0 -12 -21 -25 -41 -25 -13
0 -11 24 2 37 14 14 39 6 39 -12z"/>
<path d="M330 1065 c0 -3 5 -14 12 -24 9 -15 7 -29 -10 -69 -31 -73 -27 -77 8
-8 28 55 29 61 15 83 -15 22 -25 29 -25 18z"/>
<path d="M402 1010 c-16 -26 -62 -205 -61 -239 0 -14 8 10 17 53 10 44 23 81
30 84 6 2 10 8 7 12 -3 5 -3 21 1 35 4 18 9 23 14 14 5 -7 8 3 8 25 0 20 -1
36 -2 36 0 0 -7 -9 -14 -20z"/>
<path d="M1740 957 c0 -15 -5 -36 -11 -46 -15 -23 -4 -67 17 -75 21 -8 26 -3
18 17 -3 9 -12 13 -21 10 -13 -5 -14 -3 -3 17 12 23 16 87 6 97 -3 4 -6 -6 -6
-20z"/>
<path d="M2546 940 c-4 -25 -9 -57 -12 -72 -4 -22 -2 -27 10 -22 10 4 14 15
11 35 -2 20 1 29 11 29 8 0 14 5 14 11 0 8 4 8 14 -1 13 -10 13 -8 3 14 l-12
25 -9 -22 c-9 -20 -10 -19 -16 13 l-6 35 -8 -45z"/>
<path d="M315 858 c-8 -29 -18 -78 -20 -108 -4 -43 0 -31 19 50 26 114 27 145
1 58z"/>
<path d="M2770 880 c-6 -10 -16 -17 -23 -14 -10 3 -12 -4 -9 -29 3 -27 -10
-95 -34 -174 -3 -10 8 7 24 37 17 30 28 58 26 62 -3 4 -1 16 4 25 6 10 12 34
15 54 2 20 8 42 11 48 4 6 5 11 2 11 -3 0 -10 -9 -16 -20z"/>
<path d="M2681 871 c-14 -4 -27 -13 -29 -21 -5 -13 -3 -13 12 -1 24 20 29 9
16 -39 -12 -45 -8 -64 8 -33 7 14 24 106 19 102 -1 -1 -13 -4 -26 -8z"/>
<path d="M1660 834 c0 -8 -11 -14 -27 -15 -27 0 -27 0 -5 -10 17 -6 30 -4 48
7 25 17 25 26 -1 30 -8 1 -15 -4 -15 -12z"/>
<path d="M1801 839 c-23 -9 -23 -10 -5 -30 13 -15 20 -17 23 -7 2 7 8 21 13
31 10 19 4 20 -31 6z"/>
<path d="M1351 804 c-47 -42 -53 -59 -13 -39 22 12 73 75 59 75 -2 0 -23 -16
-46 -36z"/>
<path d="M2331 835 c0 -5 10 -44 23 -85 13 -41 24 -70 25 -65 0 6 -10 44 -23
85 -13 41 -24 71 -25 65z"/>
<path d="M2615 830 c-3 -5 -1 -18 5 -29 7 -13 7 -22 0 -26 -5 -3 -10 -23 -11
-43 0 -30 -2 -33 -9 -17 -7 16 -9 11 -9 -20 0 -22 2 -51 6 -63 9 -34 23 -6 17
33 l-5 30 15 -25 c14 -24 14 -24 10 20 -4 36 -3 42 6 27 7 -10 9 -25 6 -33 -3
-8 -1 -14 5 -14 6 0 1 -17 -11 -37 -19 -32 -20 -37 -6 -45 20 -11 20 -27 -1
-50 -13 -14 -13 -18 -2 -18 15 0 42 15 39 21 -1 2 4 17 11 32 11 25 10 38 -5
90 -9 34 -19 71 -20 82 -2 11 -7 28 -11 37 -4 9 -4 22 0 27 4 7 -1 8 -11 4
-13 -5 -16 -3 -11 10 7 18 2 23 -8 7z"/>
<path d="M1715 755 c-4 -22 -12 -45 -17 -51 -6 -8 -2 -11 14 -10 20 1 23 5 20
36 -6 62 -9 66 -17 25z"/>
<path d="M2526 730 c6 -71 36 -176 59 -206 13 -18 14 -16 14 21 -1 33 -2 36
-8 15 -6 -22 -9 -17 -24 35 -23 85 -27 114 -16 120 12 8 12 52 0 59 -5 4 -7
-4 -5 -16 3 -17 1 -15 -10 7 -15 29 -15 27 -10 -35z"/>
<path d="M1805 720 c-10 -11 -23 -20 -29 -20 -6 0 -19 -24 -28 -53 -34 -106
-60 -174 -95 -245 -37 -74 -62 -105 -50 -61 4 13 9 49 12 79 3 41 0 32 -13
-35 -19 -97 -31 -123 -99 -227 -30 -47 -62 -81 -104 -110 -39 -27 -55 -44 -45
-46 9 -2 33 12 53 32 21 19 39 33 41 31 3 -2 0 -18 -6 -34 -17 -49 1 -36 23
17 10 26 33 70 50 99 65 110 114 189 130 208 16 19 16 17 11 -35 -4 -30 -9
-115 -13 -188 -5 -109 -3 -132 8 -132 11 0 14 33 16 170 2 180 9 218 65 385
38 111 52 140 80 159 12 9 19 18 17 21 -3 3 -14 -4 -24 -15z"/>
<path d="M1425 690 c-24 -27 -35 -113 -23 -171 9 -40 7 -58 -27 -165 -21 -65
-42 -120 -47 -122 -4 -2 -8 -9 -8 -15 0 -6 7 -5 16 5 9 8 31 64 49 124 27 88
36 108 50 106 16 -3 15 0 -4 31 -29 48 -28 100 4 125 24 19 24 20 5 25 -13 3
-18 1 -14 -6 5 -8 2 -7 -6 0 -12 11 -11 15 5 27 11 8 24 12 30 9 5 -2 1 3 -9
11 -18 14 -15 21 7 17 5 -1 6 3 2 9 -8 13 -9 13 -30 -10z"/>
<path d="M1470 688 c0 -9 5 -20 12 -24 8 -5 6 -10 -7 -14 -19 -7 -18 -7 3 -19
12 -6 22 -8 21 -4 -3 18 2 33 10 33 7 0 20 -27 25 -52 0 -5 6 -7 11 -5 11 2 8
19 -4 27 -5 3 -7 13 -5 23 1 9 -2 15 -7 11 -5 -3 -9 0 -9 6 0 7 -7 10 -15 6
-8 -3 -19 2 -24 12 -10 16 -10 16 -11 0z"/>
<path d="M1606 662 l-40 -27 41 -3 c35 -3 44 -8 52 -30 10 -25 11 -25 5 -2 -3
14 -6 33 -7 42 -1 14 -4 15 -16 5 -12 -10 -14 -9 -8 6 4 10 7 21 7 23 0 3 5 2
12 -2 7 -4 8 -3 4 4 -9 14 -3 16 -50 -16z"/>
<path d="M2142 578 c-5 -57 -7 -327 -2 -383 3 -47 7 4 11 155 4 124 3 229 -1
233 -4 4 -7 2 -8 -5z"/>
<path d="M1555 551 c8 -17 20 -33 27 -37 19 -12 48 -12 48 -1 0 5 8 16 18 23
16 13 16 14 0 8 -10 -3 -34 3 -53 15 -49 28 -58 26 -40 -8z"/>
<path d="M1476 518 c-9 -30 -16 -81 -10 -75 4 4 13 -1 20 -11 11 -14 12 -11 3
22 -6 21 -8 47 -6 57 6 21 -1 27 -7 7z"/>
<path d="M372 408 c-34 -61 -61 -113 -59 -114 2 -2 23 31 47 74 57 99 80 145
77 149 -2 1 -31 -47 -65 -109z"/>
<path d="M442 447 c-6 -23 -35 -82 -65 -132 -29 -49 -73 -126 -96 -170 -24
-44 -49 -88 -56 -98 -17 -24 -28 -6 -19 29 5 19 4 25 -5 20 -16 -10 -15 -99 2
-94 6 3 57 84 112 181 76 133 102 172 108 159 5 -13 6 -11 3 6 -2 12 -1 22 3
22 9 0 37 108 30 115 -3 2 -10 -15 -17 -38z"/>
<path d="M2368 429 c-2 -8 0 -50 5 -94 11 -95 2 -141 -42 -201 -17 -22 -46
-49 -66 -59 -31 -17 -38 -18 -58 -6 -20 13 -21 13 -8 -2 19 -24 49 -21 86 8
18 13 36 21 40 17 5 -4 5 -2 2 5 -4 6 -4 13 1 15 23 9 69 105 64 131 -1 4 2 7
7 7 10 0 27 -39 23 -54 -2 -4 1 -13 6 -20 19 -24 19 -58 1 -107 -20 -52 -18
-69 7 -69 9 0 14 11 14 36 0 19 5 44 10 54 8 15 0 55 -31 167 -52 186 -54 191
-61 172z"/>
<path d="M2052 243 c-2 -117 1 -139 21 -188 12 -30 28 -55 36 -55 19 0 6 47
-24 86 -22 29 -25 43 -28 160 l-3 129 -2 -132z"/>
<path d="M1214 314 c-10 -8 -14 -13 -7 -10 6 4 14 2 18 -4 3 -6 -1 -13 -9 -16
-14 -5 -13 -10 6 -29 24 -25 47 -23 26 2 -6 8 -11 28 -10 44 3 34 2 34 -24 13z"/>
<path d="M401 254 c-8 -36 -11 -67 -9 -69 2 -3 10 25 17 61 8 36 11 67 9 69
-2 3 -10 -25 -17 -61z"/>
<path d="M1997 198 c-2 -18 -1 -40 4 -48 5 -10 8 1 9 33 0 55 -6 61 -13 15z"/>
<path d="M1074 201 c4 -5 3 -11 -1 -13 -11 -5 -78 -78 -71 -78 6 0 34 26 72
68 24 26 26 32 12 32 -9 0 -15 -4 -12 -9z"/>
<path d="M1103 180 c-17 -16 -29 -31 -26 -33 2 -3 13 2 22 11 10 10 26 22 36
28 10 6 15 13 9 16 -5 4 -23 -7 -41 -22z"/>
<path d="M1234 185 c-10 -21 -9 -22 18 -11 32 12 36 22 10 28 -12 3 -22 -3
-28 -17z"/>
<path d="M383 101 c-1 -20 -4 -51 -7 -68 -4 -24 -2 -33 8 -33 18 0 27 112 10
127 -7 7 -10 -1 -11 -26z"/>
<path d="M1270 111 c-8 -16 -8 -21 1 -21 8 0 10 -14 6 -47 -5 -38 -4 -44 4
-29 11 18 15 104 5 113 -2 3 -9 -5 -16 -16z"/>
<path d="M1078 84 c-4 -3 -17 -7 -30 -9 -12 -2 -39 -8 -58 -14 l-35 -9 47 -1
c26 -1 50 4 54 10 5 8 9 8 14 -1 9 -15 30 -4 30 16 0 14 -12 19 -22 8z"/>
<path d="M2032 68 c-18 -18 -15 -68 3 -68 11 0 15 11 15 40 0 44 -1 45 -18 28z"/>
<path d="M926 15 c4 -8 15 -15 25 -15 23 0 25 16 3 24 -25 10 -34 7 -28 -9z"/>
</g>
</svg>
