<?xml version="1.0" standalone="no"?>
<!DOCTYPE svg PUBLIC "-//W3C//DTD SVG 20010904//EN"
 "http://www.w3.org/TR/2001/REC-SVG-20010904/DTD/svg10.dtd">
<svg version="1.0" xmlns="http://www.w3.org/2000/svg"
 width="300.000000pt" height="300.000000pt" viewBox="0 0 300.000000 300.000000"
 preserveAspectRatio="xMidYMid meet">
<metadata>
Created by potrace 1.10, written by Peter Selinger 2001-2011
</metadata>
<g transform="translate(0.000000,300.000000) scale(0.100000,-0.100000)"
fill="#000000" stroke="none">
<path d="M928 2276 c-135 -48 -232 -143 -280 -274 -28 -76 -30 -231 -4 -317
28 -94 79 -196 148 -297 100 -147 352 -397 626 -622 l82 -68 48 38 c254 208
521 465 626 604 122 163 190 318 203 465 18 222 -117 419 -331 480 -45 13 -83
16 -152 13 -80 -4 -103 -10 -166 -40 -84 -41 -154 -99 -195 -163 -15 -25 -31
-45 -34 -45 -3 0 -10 10 -16 23 -18 39 -91 114 -146 150 -120 80 -276 100
-409 53z m337 -60 c82 -41 153 -110 205 -202 l32 -56 27 53 c39 78 135 173
214 210 78 36 183 48 266 30 218 -47 356 -250 322 -476 -40 -268 -228 -514
-706 -920 l-125 -106 -137 117 c-179 153 -409 378 -487 479 -121 155 -184 286
-205 426 -28 185 52 355 208 438 80 42 121 51 224 47 77 -3 97 -8 162 -40z"/>
</g>
</svg>
