<svg version="1.1" id="Layer_1" xmlns="http://www.w3.org/2000/svg" xmlns:xlink="http://www.w3.org/1999/xlink" x="0px" y="0px"
	 width="100%" viewBox="0 0 672 240" enable-background="new 0 0 672 240" xml:space="preserve">
<path fill="#000000" opacity="1.000000" stroke="none" 
	d="
M1.000000,199.399994 
	C15.092823,202.389938 29.469648,204.025864 43.827099,205.647308 
	C74.040092,209.059387 104.406807,208.942230 134.675171,207.508942 
	C184.510193,205.149078 233.339951,197.471542 278.750092,175.074493 
	C280.473572,174.224457 282.460083,173.727859 284.026825,171.678833 
	C268.126099,166.871460 255.016083,158.061356 244.171127,145.913437 
	C233.857101,134.360229 225.103821,121.881393 222.207062,106.211235 
	C221.261215,101.094696 221.069748,95.864433 222.181625,90.817146 
	C225.487152,75.811913 241.135529,68.522102 256.471558,74.675247 
	C268.014954,79.306702 275.649414,88.173241 281.968140,98.439720 
	C283.083496,100.251915 283.641602,102.452873 285.851105,103.992973 
	C289.667908,96.932076 293.471497,89.949539 299.270142,84.346306 
	C300.946136,82.726791 299.681427,80.919174 298.977661,79.262085 
	C295.531494,71.147392 293.582275,62.707821 294.973816,53.926765 
	C297.345215,38.962364 314.075928,27.604561 329.232239,30.200945 
	C342.171112,32.417469 351.564636,39.988213 359.577881,49.789734 
	C363.805267,54.960567 367.026520,60.768520 370.240906,66.750290 
	C372.373779,65.308243 372.759888,63.071751 373.743866,61.250835 
	C379.879364,49.896900 387.594482,39.942528 399.392670,34.063183 
	C410.214539,28.670355 421.571442,28.030323 431.735260,34.978199 
	C442.202606,42.133541 443.276062,53.432716 441.708527,65.034752 
	C439.261261,83.148239 430.147095,98.208061 419.359924,112.376274 
	C407.338348,128.165771 392.760040,141.258667 376.209717,152.177658 
	C375.112976,152.901230 374.050995,153.677505 372.224762,154.950867 
	C376.698883,157.943848 380.657715,160.824234 384.833191,163.346054 
	C405.363495,175.745712 426.832916,185.990631 450.889679,189.172302 
	C466.401855,191.223877 481.798431,190.524612 496.387573,183.667328 
	C499.573212,182.170013 500.379028,180.762756 499.120392,177.193954 
	C494.412415,163.844467 493.597931,150.189377 497.711243,136.514847 
	C499.816284,129.516769 503.457794,123.333748 509.861786,119.369469 
	C516.191467,115.451195 522.346802,116.945618 526.099182,123.380196 
	C530.519043,130.959320 529.938110,139.052979 527.591919,147.104126 
	C524.220825,158.672501 517.941650,168.609940 510.117493,177.663528 
	C508.792328,179.196869 506.054840,180.455902 507.304871,182.954575 
	C508.676392,185.696121 511.151794,187.482422 514.478149,187.678680 
	C520.303955,188.022400 526.018738,182.907608 526.179321,177.108368 
	C526.280701,173.447357 528.810486,172.181366 531.779419,171.927216 
	C535.086182,171.644150 538.227112,172.434418 539.232910,176.258789 
	C539.643433,177.819885 539.567261,179.508972 539.721741,181.243866 
	C543.902893,182.631622 546.028198,180.195160 547.894897,176.988739 
	C551.888550,179.019135 551.339600,183.387543 553.572327,186.566498 
	C555.295776,184.873550 556.416382,183.002396 556.669983,180.679367 
	C556.856689,178.968781 557.479980,177.449554 558.356445,176.024155 
	C559.646301,173.926407 561.479248,171.839401 563.969971,173.154358 
	C567.015076,174.762024 564.931458,177.101974 563.852844,179.100098 
	C563.553345,179.654968 563.339172,180.255905 562.861572,181.348831 
	C567.452515,181.759369 570.940369,181.035721 573.179443,176.946518 
	C574.466675,174.595718 576.039490,172.355194 578.598938,171.247910 
	C580.690186,170.343201 582.972839,170.149719 584.434692,172.331070 
	C585.783997,174.344467 584.744019,176.316254 583.254578,177.703506 
	C581.591187,179.252808 579.561523,180.408783 577.286926,182.022812 
	C580.762573,185.311310 583.822388,183.280624 586.950867,182.262085 
	C589.919434,181.295609 591.445435,177.140137 595.502136,178.253128 
	C592.610901,185.891769 579.527466,190.128540 573.818298,185.237976 
	C571.969299,183.654053 570.515503,183.410034 568.484924,184.216064 
	C567.563599,184.581787 566.459778,185.137375 565.609131,184.924835 
	C560.502991,183.649078 558.492798,186.619247 557.036621,190.709946 
	C556.526123,192.143997 555.479126,193.383530 553.673828,193.169952 
	C551.935181,192.964264 551.319458,191.563431 550.716431,190.135147 
	C549.828430,188.031738 550.073120,185.450592 547.874939,183.599747 
	C543.244568,185.600235 537.655823,184.529312 533.325867,188.640381 
	C531.150696,190.705612 527.905273,189.841187 526.056213,186.435501 
	C523.174438,188.278442 520.716614,190.383286 517.601929,191.048462 
	C513.078003,192.014587 508.975250,191.120453 505.607452,187.787415 
	C504.275665,186.469437 503.200958,185.223129 500.940765,186.304459 
	C475.188995,198.624710 449.404633,195.015182 423.727448,186.106155 
	C405.835999,179.898499 389.238281,171.032288 373.748077,160.196060 
	C369.883423,157.492523 366.950256,157.613052 362.992950,159.828857 
	C347.535492,168.483932 330.896851,173.491119 313.213806,174.961594 
	C307.531067,175.434143 301.839905,175.190002 296.286072,174.171616 
	C292.554291,173.487350 289.603302,174.281952 286.389099,176.003723 
	C257.577454,191.437424 226.492798,199.838730 194.495102,205.283890 
	C155.764572,211.874832 116.704224,213.212494 77.531876,212.053421 
	C52.046623,211.299332 26.829128,207.905914 1.387656,203.131836 
	C1.000000,201.933334 1.000000,200.866653 1.000000,199.399994 
M352.435303,47.066246 
	C345.064789,39.328693 336.417358,33.411697 325.465820,33.797676 
	C315.169708,34.160557 306.253967,38.747120 301.515839,48.472462 
	C296.473267,58.822735 298.368805,69.125946 303.594360,78.988007 
	C303.708405,79.203278 304.178619,79.229828 304.799347,79.463722 
	C309.062469,76.567596 313.809204,74.213440 319.112122,73.150742 
	C335.117004,69.943367 348.244568,79.965179 349.428345,96.025673 
	C350.191833,106.383644 347.489075,115.867096 342.571869,124.719276 
	C340.606598,128.257233 341.173981,130.248489 344.100281,132.594452 
	C351.112732,138.216171 357.986450,144.013214 364.843750,149.824875 
	C366.938843,151.600479 368.774841,151.722519 371.105835,150.199722 
	C397.282379,133.098969 418.595673,111.616295 431.869995,82.893242 
	C436.192780,73.539642 438.470581,63.748066 437.682495,53.349316 
	C436.803619,41.752281 429.620575,34.808613 418.038300,34.152306 
	C408.645782,33.620083 400.807129,37.028687 393.820129,42.950829 
	C384.569305,50.791775 378.268555,60.629364 374.051331,71.918655 
	C373.463226,73.492989 373.608612,75.986610 371.139679,76.034599 
	C368.727234,76.081490 368.572968,73.702972 367.984314,72.090103 
	C364.625458,62.886940 359.572784,54.746780 352.435303,47.066246 
M268.336243,161.154587 
	C273.673370,164.308472 279.377167,166.587997 285.321045,168.303253 
	C287.634094,168.970749 289.858459,169.146683 292.064056,167.830978 
	C307.954407,158.351929 322.109161,146.948563 332.991730,131.752151 
	C334.875366,129.121841 334.006195,127.792458 332.151245,125.912140 
	C323.005829,116.641678 314.646942,106.712418 307.593933,95.733337 
	C305.931000,93.144730 304.354980,90.500282 302.576996,87.619019 
	C301.559448,88.568604 300.888794,89.058037 300.387604,89.683296 
	C295.354614,95.962143 291.131134,102.711678 288.516327,110.379265 
	C288.092529,111.622025 287.934906,113.104530 286.224457,113.267899 
	C284.241760,113.457275 283.796204,111.903244 283.239563,110.494957 
	C282.382751,108.327240 281.682770,106.075081 280.608978,104.019249 
	C274.207855,91.764214 266.210419,81.025909 252.093628,77.050453 
	C240.707565,73.844017 229.029907,80.718781 226.515991,91.735153 
	C225.118988,97.857063 225.333984,103.998596 227.215851,109.964058 
	C234.190933,132.074844 248.305801,148.544525 268.336243,161.154587 
M306.701630,86.918793 
	C314.621460,101.249863 324.952820,113.656548 336.917816,125.635910 
	C342.357727,116.028069 346.069519,106.619781 345.485229,96.222145 
	C345.096802,89.309464 342.985748,82.727615 336.052277,79.115875 
	C327.703796,74.767044 315.386932,76.256233 308.376099,82.484108 
	C307.246033,83.487984 306.073395,84.477188 306.701630,86.918793 
M353.332062,145.196655 
	C348.448669,141.011383 343.565277,136.826096 338.278717,132.295273 
	C327.242401,148.083008 313.131165,159.901840 296.475586,170.474655 
	C321.592010,172.727066 343.183197,166.307922 363.872742,154.278473 
	C360.717163,150.333298 356.902222,148.447876 353.332062,145.196655 
M505.599548,129.142212 
	C497.463959,144.640305 497.294312,170.006775 505.365845,177.329224 
	C508.883789,174.954391 511.143005,171.403793 513.459595,168.016968 
	C520.770386,157.328873 526.849487,146.151779 525.695679,132.515305 
	C525.201599,126.675888 522.045593,121.391953 518.097961,120.641228 
	C512.844666,119.642197 509.898987,123.287582 507.042206,126.834099 
	C506.628510,127.347672 506.329224,127.953415 505.599548,129.142212 
M535.319214,178.167343 
	C534.180237,175.089737 532.450928,174.715408 529.193726,177.100250 
	C531.742310,177.901031 532.369751,181.732483 535.319214,178.167343 
z"/>
</svg>