<?xml version="1.0" encoding="utf-8" ?>
<svg baseProfile="tiny" height="7840.0" version="1.2" viewBox="0,0,7840.0,7840.0" width="7840.0" xmlns="http://www.w3.org/2000/svg" xmlns:ev="http://www.w3.org/2001/xml-events" xmlns:xlink="http://www.w3.org/1999/xlink"><defs /><path d="M 5052.00,4980.00 L 5020.49,4997.11 L 4990.10,5015.61 L 4960.75,5035.41 L 4932.38,5056.44 L 4904.93,5078.61 L 4878.33,5101.85 L 4852.52,5126.06 L 4827.43,5151.19 L 4802.99,5177.13 L 4779.14,5203.81 L 4755.82,5231.15 L 4732.95,5259.07 L 4710.48,5287.49 L 4688.34,5316.33 L 4666.46,5345.51 L 4644.78,5374.94 L 4623.23,5404.54 L 4601.75,5434.24 L 4580.27,5463.96 L 4558.73,5493.61 L 4537.06,5523.11 L 4515.19,5552.38 L 4493.07,5581.34 L 4470.62,5609.91 L 4447.78,5638.02 L 4424.48,5665.57 L 4400.67,5692.49 L 4376.27,5718.69 L 4351.22,5744.10 L 4325.45,5768.64 L 4298.90,5792.23 L 4271.50,5814.77 L 4243.20,5836.21 L 4213.91,5856.44 L 4183.58,5875.40 L 4152.14,5892.99 L 4119.53,5909.15 L 4085.68,5923.79 L 4050.53,5936.83 L 4014.00,5948.18 L 3976.05,5957.77 L 3936.60,5965.51 L 3898.78,5967.22 L 3872.93,5949.55 L 3857.63,5915.80 L 3833.75,5894.18 L 3798.68,5888.27 L 3775.41,5863.86 L 3758.39,5831.85 L 3729.73,5821.65 L 3693.72,5814.95 L 3666.78,5790.01 L 3659.62,5754.78 L 3655.84,5729.01 L 3621.24,5729.70 L 3578.15,5734.18 L 3536.98,5732.96 L 3497.95,5726.34 L 3461.17,5714.73 L 3426.73,5698.52 L 3394.75,5678.11 L 3365.32,5653.90 L 3338.56,5626.29 L 3314.57,5595.68 L 3293.45,5562.46 L 3275.31,5527.05 L 3260.26,5489.84 L 3248.39,5451.23 L 3239.81,5411.62 L 3238.45,5375.19 L 3264.39,5362.63 L 3305.46,5365.83 L 3347.54,5373.54 L 3389.35,5385.32 L 3429.92,5400.91 L 3468.26,5420.09 L 3503.39,5442.63 L 3534.31,5468.29 L 3560.05,5496.83 L 3579.63,5528.02 L 3592.05,5561.63 L 3596.34,5597.43 L 3591.50,5635.17 L 3584.88,5668.93 L 3610.22,5675.87 L 3652.64,5672.39 L 3688.87,5679.69 L 3718.02,5697.71 L 3741.98,5723.71 L 3762.66,5754.96 L 3781.98,5788.71 L 3801.83,5822.24 L 3824.13,5852.80 L 3850.78,5877.66 L 3883.56,5894.11 L 3920.79,5900.22 L 3956.74,5894.98 L 3985.70,5877.54 L 4006.85,5849.80 L 4024.01,5816.33 L 4040.94,5781.48 L 4058.93,5746.90 L 4078.07,5712.93 L 4098.45,5679.86 L 4120.13,5648.00 L 4143.20,5617.67 L 4167.73,5589.18 L 4193.79,5562.83 L 4221.48,5538.93 L 4250.85,5517.80 L 4282.00,5499.73 L 4315.00,5485.05 L 4349.92,5474.06 L 4386.85,5467.07 L 4425.85,5464.38 L 4466.26,5465.50 L 4492.79,5454.10 L 4497.32,5419.54 L 4510.43,5389.68 L 4535.42,5367.83 L 4568.00,5350.39 L 4603.89,5333.76 L 4638.82,5314.35 L 4668.87,5288.93 L 4693.82,5258.14 L 4715.48,5224.74 L 4735.68,5191.53 L 4756.26,5161.30 L 4779.06,5136.86 L 4805.91,5120.98 L 4838.57,5116.31 L 4872.15,5111.97 L 4898.59,5091.44 L 4919.98,5059.96 L 4939.20,5024.45 L 4959.13,4991.79 L 4982.65,4968.89 L 5012.64,4962.65 L 5051.98,4979.96 Z" fill="none" stroke="black" stroke-linecap="round" stroke-linejoin="round" stroke-width="0.5" /><path d="M 2427.99,1996.17 L 2507.26,1969.19 L 2588.34,1948.62 L 2670.75,1934.41 L 2754.01,1926.52 L 2837.65,1924.91 L 2921.18,1929.53 L 3004.12,1940.34 L 3086.01,1957.29 L 3166.36,1980.35 L 3244.68,2009.46 L 3320.51,2044.59 L 3393.41,2085.47 L 3463.06,2131.01 L 3529.21,2179.91 L 3591.53,2233.07 L 3649.63,2296.24 L 3703.12,2375.18 L 3752.30,2465.88 L 3798.03,2556.66 L 3841.18,2635.66 L 3882.59,2691.00 L 3923.14,2710.82 L 3963.70,2688.05 L 4005.14,2630.89 L 4048.37,2550.57 L 4094.26,2458.32 L 4143.71,2365.35 L 4197.59,2282.74 L 4256.26,2215.62 L 4319.37,2161.13 L 4386.53,2115.88 L 4457.35,2076.46 L 4531.41,2040.12 L 4608.25,2007.05 L 4687.39,1978.26 L 4768.35,1954.76 L 4850.65,1937.54 L 4933.82,1927.25 L 5017.42,1923.79 L 5101.01,1926.98 L 5184.15,1936.60 L 5266.41,1952.49 L 5347.35,1974.43 L 5426.53,2002.24 L 5503.51,2035.72 L 5577.84,2074.70 L 5649.01,2119.00 L 5716.52,2168.45 L 5779.87,2222.89 L 5838.56,2282.14 L 5892.07,2346.04 L 5939.93,2414.42 L 5981.88,2486.86 L 6017.91,2562.72 L 6048.02,2641.37 L 6072.23,2722.15 L 6090.52,2804.43 L 6102.90,2887.55 L 6109.37,2970.88 L 6110.06,3053.98 L 6105.31,3136.70 L 6095.45,3218.96 L 6080.85,3300.68 L 6061.86,3381.74 L 6038.83,3462.07 L 6012.11,3541.56 L 5982.06,3620.12 L 5949.02,3697.66 L 5913.35,3774.09 L 5875.26,3849.33 L 5834.90,3923.29 L 5792.39,3995.90 L 5747.86,4067.08 L 5701.45,4136.76 L 5653.30,4204.85 L 5603.53,4271.29 L 5552.27,4336.00 L 5499.67,4398.89 L 5445.85,4459.92 L 5390.93,4519.50 L 5335.00,4578.44 L 5278.17,4637.54 L 5220.53,4697.63 L 5162.18,4759.53 L 5103.22,4824.05 L 5043.75,4892.01 L 4983.84,4963.55 L 4923.51,5037.87 L 4862.78,5114.07 L 4801.67,5191.24 L 4740.19,5268.49 L 4678.37,5344.92 L 4616.22,5419.63 L 4553.76,5491.71 L 4491.02,5560.26 L 4428.01,5624.40 L 4364.75,5683.21 L 4301.26,5735.80 L 4237.55,5781.27 L 4173.65,5818.72 L 4109.58,5847.24 L 4045.35,5865.95 L 3980.98,5873.93 L 3916.50,5870.29 L 3851.92,5854.70 L 3787.30,5828.17 L 3722.66,5791.92 L 3658.07,5747.15 L 3593.55,5695.08 L 3529.16,5636.91 L 3464.94,5573.86 L 3400.94,5507.12 L 3337.19,5437.92 L 3273.75,5367.47 L 3210.65,5296.96 L 3147.94,5227.62 L 3085.66,5160.63 L 3023.86,5096.46 L 2962.55,5034.73 L 2901.77,4974.97 L 2841.53,4916.76 L 2781.87,4859.62 L 2722.81,4803.12 L 2664.37,4746.82 L 2606.58,4690.25 L 2549.48,4632.97 L 2493.07,4574.53 L 2437.42,4514.60 L 2382.68,4453.14 L 2328.97,4390.18 L 2276.47,4325.74 L 2225.32,4259.84 L 2175.68,4192.51 L 2127.69,4123.76 L 2081.50,4053.62 L 2037.27,3982.11 L 1995.16,3909.25 L 1955.30,3835.07 L 1917.86,3759.59 L 1882.99,3682.82 L 1850.83,3604.80 L 1821.55,3525.56 L 1795.46,3445.22 L 1772.95,3363.99 L 1754.42,3282.08 L 1740.28,3199.68 L 1730.90,3117.00 L 1726.71,3034.25 L 1728.09,2951.62 L 1735.44,2869.32 L 1749.13,2787.56 L 1769.19,2706.74 L 1795.40,2627.37 L 1827.54,2549.96 L 1865.41,2475.03 L 1908.79,2403.08 L 1957.46,2334.63 L 2011.21,2270.19 L 2069.82,2210.27 L 2133.08,2155.39 L 2200.77,2106.06 L 2272.68,2062.79 L 2348.59,2026.09 L 2428.28,1996.48 Z" fill="none" stroke="black" stroke-linecap="round" stroke-linejoin="round" stroke-width="0.5" /><path d="M 4087.99,2320.42 L 4104.75,2446.23 L 4090.05,2343.35 L 4057.93,2399.06 L 4026.97,2476.52 L 4001.06,2538.31 L 3979.61,2585.59 L 3961.99,2619.52 L 3947.61,2641.28 L 3935.84,2652.03 L 3926.08,2652.93 L 3917.72,2645.17 L 3910.14,2629.90 L 3902.73,2608.29 L 3894.89,2581.51 L 3885.99,2550.73 L 3875.44,2517.11 L 3862.62,2481.82 L 3846.92,2446.04 L 3827.72,2410.92 L 3804.42,2377.63 L 3776.40,2347.35 L 3743.07,2321.24 L 3703.79,2300.46 L 3662.29,2284.20 L 3645.19,2261.16 L 3648.60,2237.55 L 3614.01,2238.30 L 3595.90,2209.76 L 3582.98,2175.29 L 3552.01,2167.76 L 3516.91,2163.76 L 3489.12,2145.44 L 3465.94,2117.93 L 3444.22,2087.05 L 3420.98,2058.35 L 3395.14,2033.91 L 3366.99,2013.34 L 3336.87,1996.20 L 3305.09,1982.05 L 3271.98,1970.44 L 3237.84,1960.95 L 3203.02,1953.12 L 3167.82,1946.53 L 3132.57,1940.72 L 3097.55,1935.31 L 3062.80,1930.24 L 3028.27,1925.55 L 2993.92,1921.29 L 2959.70,1917.51 L 2925.57,1914.25 L 2891.47,1911.57 L 2857.35,1909.52 L 2823.18,1908.14 L 2788.90,1907.49 L 2754.47,1907.61 L 2719.85,1908.54 L 2685.06,1910.37 L 2650.24,1913.18 L 2615.52,1917.07 L 2581.03,1922.13 L 2546.90,1928.46 L 2513.27,1936.15 L 2480.26,1945.30 L 2448.01,1956.00 L 2416.57,1968.26 L 2385.69,1981.83 L 2355.03,1996.37 L 2324.27,2011.52 L 2293.07,2026.95 L 2261.11,2042.31 L 2228.05,2057.28 L 2193.96,2071.84 L 2159.46,2086.44 L 2125.20,2101.59 L 2091.85,2117.78 L 2060.06,2135.49 L 2030.50,2155.24 L 2003.82,2177.51 L 1980.69,2202.79 L 1961.76,2231.59 L 1947.69,2264.39 L 1939.15,2301.69 L 1933.38,2340.92 L 1918.78,2371.52 L 1883.82,2382.67 L 1852.44,2387.63 L 1865.90,2414.29 L 1887.48,2449.61 L 1893.46,2483.14 L 1886.33,2515.02 L 1869.17,2545.67 L 1845.09,2575.48 L 1817.18,2604.86 L 1788.54,2634.21 L 1762.25,2663.92 L 1741.17,2694.38 L 1725.75,2725.71 L 1715.19,2757.88 L 1708.67,2790.88 L 1705.35,2824.69 L 1704.41,2859.29 L 1705.03,2894.66 L 1706.37,2930.79 L 1707.63,2967.64 L 1707.97,3005.20 L 1707.04,3043.39 L 1705.15,3082.00 L 1702.66,3120.83 L 1699.96,3159.68 L 1697.40,3198.35 L 1695.35,3236.64 L 1694.18,3274.33 L 1694.27,3311.23 L 1695.97,3347.14 L 1699.66,3381.84 L 1705.71,3415.15 L 1714.47,3446.85 L 1726.33,3476.74 L 1741.65,3504.62 L 1760.80,3530.28 L 1784.15,3553.53 L 1811.48,3574.52 L 1836.73,3597.07 L 1854.94,3624.31 L 1867.44,3655.43 L 1876.02,3689.33 L 1882.46,3724.91 L 1888.56,3761.07 L 1896.11,3796.71 L 1906.91,3830.73 L 1922.73,3862.02 L 1945.37,3889.50 L 1974.94,3912.94 L 2002.42,3936.93 L 2015.75,3967.65 L 2010.14,4005.93 L 2032.22,4016.14 L 2049.89,4036.20 L 2053.33,4076.89 L 2072.03,4110.14 L 2103.07,4135.33 L 2138.01,4156.52 L 2168.40,4177.78 L 2185.81,4203.16 L 2181.83,4236.70 L 2174.42,4264.62 L 2212.04,4259.11 L 2254.86,4262.02 L 2294.02,4278.03 L 2328.01,4304.19 L 2355.30,4337.55 L 2374.37,4375.13 L 2383.68,4413.98 L 2381.73,4451.14 L 2367.00,4483.63 L 2341.06,4507.41 L 2310.91,4516.84 L 2280.32,4511.30 L 2250.65,4493.34 L 2223.26,4465.57 L 2199.50,4430.55 L 2180.72,4390.89 L 2168.27,4349.17 L 2163.41,4308.00 L 2160.04,4271.61 L 2139.66,4246.86 L 2103.19,4231.88 L 2089.05,4208.41 L 2094.58,4175.83 L 2069.97,4154.54 L 2031.11,4137.72 L 1996.03,4117.81 L 1967.13,4094.03 L 1944.22,4066.75 L 1927.06,4036.33 L 1915.44,4003.16 L 1909.14,3967.60 L 1907.93,3930.02 L 1909.90,3891.65 L 1905.07,3857.69 L 1881.99,3834.02 L 1850.38,3814.72 L 1841.18,3782.06 L 1853.50,3742.12 L 1839.52,3735.03 L 1805.79,3744.44 L 1791.05,3725.83 L 1789.39,3686.92 L 1791.16,3639.76 L 1786.70,3596.41 L 1766.64,3568.65 L 1735.26,3553.44 L 1710.05,3533.09 L 1692.41,3506.16 L 1681.03,3474.01 L 1674.60,3437.98 L 1671.79,3399.43 L 1671.29,3359.70 L 1671.79,3320.14 L 1671.98,3282.07 L 1671.23,3245.95 L 1669.56,3211.35 L 1667.05,3177.80 L 1663.76,3144.81 L 1659.76,3111.92 L 1655.12,3078.64 L 1649.90,3044.49 L 1644.17,3009.01 L 1638.16,2971.93 L 1632.82,2933.91 L 1629.30,2895.89 L 1628.74,2858.78 L 1632.30,2823.50 L 1641.11,2790.97 L 1656.32,2762.13 L 1679.00,2737.82 L 1703.26,2713.12 L 1714.57,2676.27 L 1715.25,2631.03 L 1712.71,2585.83 L 1714.37,2549.07 L 1727.62,2529.19 L 1758.44,2532.79 L 1784.21,2530.75 L 1786.28,2498.17 L 1780.46,2452.49 L 1782.02,2410.82 L 1793.15,2376.25 L 1811.69,2347.16 L 1835.47,2321.95 L 1862.30,2299.00 L 1890.02,2276.70 L 1916.67,2253.59 L 1941.92,2229.48 L 1966.21,2204.73 L 1989.97,2179.72 L 2013.63,2154.82 L 2037.65,2130.41 L 2062.43,2106.85 L 2088.28,2084.40 L 2115.14,2063.07 L 2142.93,2042.83 L 2171.56,2023.65 L 2200.96,2005.51 L 2231.04,1988.38 L 2261.72,1972.23 L 2292.90,1957.04 L 2324.53,1942.80 L 2356.55,1929.48 L 2388.94,1917.10 L 2421.68,1905.65 L 2454.73,1895.14 L 2488.06,1885.56 L 2521.65,1876.92 L 2555.47,1869.22 L 2589.49,1862.46 L 2623.69,1856.64 L 2658.03,1851.75 L 2692.48,1847.81 L 2727.03,1844.81 L 2761.64,1842.76 L 2796.28,1841.65 L 2830.93,1841.48 L 2865.55,1842.26 L 2900.12,1843.98 L 2934.61,1846.66 L 2969.00,1850.28 L 3003.25,1854.85 L 3037.34,1860.36 L 3071.24,1866.83 L 3104.91,1874.26 L 3138.34,1882.63 L 3171.50,1891.96 L 3204.35,1902.24 L 3236.87,1913.47 L 3269.03,1925.67 L 3300.80,1938.81 L 3332.16,1952.92 L 3363.07,1967.99 L 3393.51,1984.01 L 3423.46,2000.99 L 3452.87,2018.94 L 3481.73,2037.85 L 3510.01,2057.71 L 3537.70,2078.48 L 3564.81,2100.12 L 3591.34,2122.57 L 3617.29,2145.77 L 3642.66,2169.68 L 3667.45,2194.25 L 3691.67,2219.42 L 3715.31,2245.13 L 3738.37,2271.35 L 3760.86,2298.01 L 3782.77,2325.07 L 3804.12,2352.47 L 3824.89,2380.17 L 3845.10,2408.10 L 3864.73,2436.22 L 3883.80,2464.47 L 3902.31,2492.81 L 3920.26,2521.09 L 3938.06,2546.53 L 3956.53,2563.52 L 3976.49,2566.29 L 3998.78,2549.09 L 4024.24,2506.15 L 4053.70,2431.71 L 4088.00,2320.00 Z" fill="none" stroke="black" stroke-linecap="round" stroke-linejoin="round" stroke-width="0.5" /><path d="M 4452.00,1979.99 L 4467.51,1844.35 L 4503.80,1805.53 L 4552.18,1827.77 L 4603.97,1875.33 L 4650.50,1912.44 L 4683.56,1904.82 L 4710.94,1869.04 L 4747.72,1849.87 L 4791.63,1844.57 L 4838.96,1846.39 L 4886.06,1848.71 L 4931.20,1848.55 L 4974.72,1846.82 L 5017.05,1844.66 L 5058.64,1843.16 L 5099.92,1843.44 L 5141.31,1846.51 L 5182.99,1852.21 L 5225.06,1859.73 L 5267.58,1868.26 L 5310.62,1876.98 L 5354.26,1885.06 L 5398.36,1892.29 L 5442.24,1900.04 L 5485.12,1909.92 L 5526.23,1923.55 L 5564.80,1942.56 L 5600.05,1968.55 L 5631.21,2003.15 L 5658.48,2045.32 L 5686.20,2082.48 L 5719.82,2099.00 L 5759.92,2093.39 L 5789.76,2115.14 L 5813.17,2157.12 L 5839.30,2197.29 L 5876.47,2216.09 L 5921.44,2228.04 L 5966.39,2250.74 L 6006.90,2282.47 L 6038.63,2320.85 L 6057.30,2363.51 L 6058.58,2408.08 L 6039.91,2451.38 L 6049.66,2467.15 L 6092.54,2466.19 L 6125.92,2480.23 L 6150.20,2507.56 L 6166.82,2545.74 L 6177.16,2592.28 L 6182.66,2644.75 L 6184.71,2700.66 L 6184.73,2757.56 L 6184.14,2812.98 L 6184.30,2864.54 L 6185.66,2911.56 L 6187.69,2955.13 L 6189.82,2996.40 L 6191.49,3036.56 L 6192.12,3076.76 L 6191.18,3118.11 L 6188.50,3160.75 L 6184.17,3204.15 L 6178.29,3247.76 L 6170.98,3291.03 L 6162.32,3333.41 L 6152.43,3374.36 L 6141.41,3413.47 L 6129.33,3451.03 L 6116.27,3487.54 L 6102.31,3523.46 L 6087.53,3559.30 L 6072.00,3595.53 L 6055.80,3632.64 L 6039.00,3671.10 L 6021.68,3711.42 L 6003.93,3754.06 L 5985.81,3799.51 L 5967.40,3848.26 L 5948.78,3900.78 L 5929.91,3956.63 L 5910.65,4014.21 L 5890.80,4071.81 L 5870.21,4127.74 L 5848.69,4180.30 L 5826.07,4227.80 L 5802.18,4268.53 L 5776.86,4300.79 L 5749.91,4322.89 L 5721.18,4333.14 L 5690.48,4329.82 L 5657.67,4311.27 L 5627.08,4280.27 L 5611.39,4248.27 L 5612.27,4218.09 L 5626.86,4188.87 L 5652.28,4159.75 L 5685.67,4129.87 L 5724.15,4098.36 L 5764.85,4064.37 L 5804.90,4027.03 L 5841.43,3985.49 L 5871.56,3938.87 L 5892.57,3886.43 L 5905.18,3830.29 L 5913.88,3775.66 L 5923.33,3727.91 L 5938.21,3692.39 L 5963.18,3674.47 L 6000.59,3677.40 L 6002.03,3656.58 L 5980.95,3611.87 L 5972.32,3568.22 L 5974.63,3525.83 L 5985.69,3484.43 L 6003.31,3443.77 L 6025.29,3403.58 L 6049.46,3363.61 L 6073.61,3323.60 L 6095.57,3283.28 L 6113.16,3242.40 L 6125.32,3200.84 L 6132.75,3158.66 L 6136.29,3115.98 L 6136.78,3072.89 L 6135.06,3029.48 L 6131.98,2985.85 L 6128.38,2942.11 L 6125.10,2898.35 L 6122.90,2854.66 L 6121.12,2811.21 L 6117.98,2768.19 L 6111.63,2725.80 L 6100.26,2684.23 L 6082.04,2643.68 L 6055.78,2604.29 L 6023.70,2565.96 L 5989.13,2528.45 L 5955.40,2491.57 L 5925.83,2455.11 L 5903.76,2418.85 L 5892.52,2382.59 L 5895.43,2346.11 L 5911.68,2309.49 L 5905.42,2275.23 L 5874.25,2243.59 L 5830.29,2213.85 L 5785.35,2185.30 L 5744.80,2157.64 L 5707.87,2130.95 L 5673.54,2105.33 L 5640.80,2080.86 L 5608.63,2057.63 L 5576.02,2035.75 L 5541.94,2015.30 L 5505.54,1996.38 L 5466.90,1979.06 L 5426.51,1963.43 L 5384.84,1949.56 L 5342.39,1937.54 L 5299.63,1927.43 L 5256.82,1919.23 L 5213.96,1912.83 L 5171.07,1908.12 L 5128.14,1905.01 L 5085.19,1903.38 L 5042.20,1903.12 L 4999.20,1904.14 L 4956.17,1906.31 L 4913.13,1909.54 L 4870.11,1913.73 L 4827.20,1918.81 L 4784.48,1924.68 L 4742.05,1931.29 L 4699.97,1938.55 L 4658.36,1946.55 L 4617.36,1956.67 L 4577.16,1970.80 L 4537.95,1990.87 L 4499.90,2018.77 L 4463.09,2054.42 L 4427.34,2093.44 L 4392.44,2130.92 L 4358.20,2161.95 L 4324.41,2181.61 L 4290.86,2184.99 L 4257.53,2167.55 L 4227.56,2131.50 L 4206.87,2084.85 L 4201.43,2035.81 L 4217.24,1992.59 L 4260.27,1963.41 L 4336.53,1956.48 L 4452.00,1980.00 Z" fill="none" stroke="black" stroke-linecap="round" stroke-linejoin="round" stroke-width="0.5" /></svg>